<svg width="65" height="65" viewBox="0 0 65 65" fill="none" xmlns="http://www.w3.org/2000/svg">
<path d="M0 20C0 10.5719 0 5.85786 2.92893 2.92893C5.85786 0 10.5719 0 20 0H45C54.4281 0 59.1421 0 62.0711 2.92893C65 5.85786 65 10.5719 65 20V45C65 54.4281 65 59.1421 62.0711 62.0711C59.1421 65 54.4281 65 45 65H20C10.5719 65 5.85786 65 2.92893 62.0711C0 59.1421 0 54.4281 0 45V20Z" fill="#F25F5C"/>
<path d="M42.625 25.1442H38.0312V23.9102C38.0284 23.1912 37.7739 22.5026 37.3233 21.9942C36.8727 21.4858 36.2623 21.1987 35.625 21.1955H30.375C29.7377 21.1987 29.1273 21.4858 28.6767 21.9942C28.2261 22.5026 27.9716 23.1912 27.9688 23.9102V25.1442H23.375C22.9689 25.1442 22.5794 25.3262 22.2922 25.6502C22.0051 25.9742 21.8438 26.4136 21.8438 26.8718V42.6666C21.8438 43.1248 22.0051 43.5642 22.2922 43.8882C22.5794 44.2122 22.9689 44.3942 23.375 44.3942H42.625C43.0311 44.3942 43.4206 44.2122 43.7078 43.8882C43.9949 43.5642 44.1562 43.1248 44.1562 42.6666V26.8718C44.1562 26.4136 43.9949 25.9742 43.7078 25.6502C43.4206 25.3262 43.0311 25.1442 42.625 25.1442ZM29.2812 23.9102C29.2812 23.583 29.3965 23.2691 29.6016 23.0377C29.8067 22.8063 30.0849 22.6763 30.375 22.6763H35.625C35.9151 22.6763 36.1933 22.8063 36.3984 23.0377C36.6035 23.2691 36.7188 23.583 36.7188 23.9102V25.1442H29.2812V23.9102ZM36.7188 26.625V42.9134H29.2812V26.625H36.7188ZM23.1562 42.6666V26.8718C23.1562 26.8063 23.1793 26.7435 23.2203 26.6973C23.2613 26.651 23.317 26.625 23.375 26.625H27.9688V42.9134H23.375C23.317 42.9134 23.2613 42.8874 23.2203 42.8412C23.1793 42.7949 23.1562 42.7321 23.1562 42.6666ZM42.8438 42.6666C42.8438 42.7321 42.8207 42.7949 42.7797 42.8412C42.7387 42.8874 42.683 42.9134 42.625 42.9134H38.0312V26.625H42.625C42.683 26.625 42.7387 26.651 42.7797 26.6973C42.8207 26.7435 42.8438 26.8063 42.8438 26.8718V42.6666Z" fill="#1F1E25"/>
</svg>
