<svg width="65" height="65" viewBox="0 0 65 65" fill="none" xmlns="http://www.w3.org/2000/svg">
<path d="M0 20C0 10.5719 0 5.85786 2.92893 2.92893C5.85786 0 10.5719 0 20 0H45C54.4281 0 59.1421 0 62.0711 2.92893C65 5.85786 65 10.5719 65 20V45C65 54.4281 65 59.1421 62.0711 62.0711C59.1421 65 54.4281 65 45 65H20C10.5719 65 5.85786 65 2.92893 62.0711C0 59.1421 0 54.4281 0 45V20Z" fill="#F4D547"/>
<path d="M42.4063 29.5C42.4069 27.9106 42.0047 26.3469 41.2373 24.955C40.4699 23.5631 39.3623 22.3883 38.018 21.5404C36.6736 20.6925 35.1363 20.1991 33.5496 20.1062C31.9629 20.0134 30.3785 20.3241 28.9444 21.0094C27.5103 21.6947 26.2733 22.7322 25.3487 24.0251C24.4242 25.3179 23.8424 26.824 23.6576 28.4027C23.4727 29.9813 23.691 31.581 24.2919 33.0525C24.8928 34.524 25.8567 35.8192 27.0938 36.8172V45.25C27.0943 45.3611 27.1226 45.4703 27.1761 45.5678C27.2296 45.6652 27.3065 45.7477 27.4 45.8078C27.4963 45.8665 27.6058 45.9003 27.7185 45.906C27.8312 45.9117 27.9435 45.8893 28.0453 45.8406L33 43.3578L37.9547 45.8406C38.0474 45.8831 38.148 45.9055 38.25 45.9062C38.3735 45.9059 38.4945 45.8719 38.6 45.8078C38.6935 45.7477 38.7704 45.6652 38.8239 45.5678C38.8774 45.4703 38.9057 45.3611 38.9063 45.25V36.8172C39.9992 35.9364 40.8809 34.822 41.4866 33.5557C42.0922 32.2895 42.4065 30.9036 42.4063 29.5ZM24.9063 29.5C24.9063 27.8992 25.3809 26.3344 26.2703 25.0033C27.1596 23.6723 28.4237 22.6349 29.9027 22.0223C31.3816 21.4097 33.009 21.2495 34.579 21.5618C36.149 21.8741 37.5912 22.6449 38.7231 23.7768C39.8551 24.9088 40.6259 26.3509 40.9382 27.921C41.2505 29.491 41.0902 31.1184 40.4777 32.5973C39.8651 34.0763 38.8277 35.3403 37.4966 36.2297C36.1656 37.119 34.6008 37.5937 33 37.5937C30.8543 37.5908 28.7973 36.7372 27.2801 35.2199C25.7628 33.7027 24.9091 31.6457 24.9063 29.5ZM37.5938 44.1891L33.2953 42.0344C33.2028 41.9913 33.102 41.969 33 41.969C32.898 41.969 32.7972 41.9913 32.7047 42.0344L28.4063 44.1891V37.7031C29.8089 38.4917 31.3909 38.9059 33 38.9059C34.6091 38.9059 36.1911 38.4917 37.5938 37.7031V44.1891ZM33 35.4062C34.1681 35.4062 35.3101 35.0598 36.2813 34.4109C37.2526 33.7619 38.0096 32.8394 38.4567 31.7602C38.9037 30.681 39.0207 29.4934 38.7928 28.3477C38.5649 27.202 38.0024 26.1496 37.1764 25.3236C36.3503 24.4976 35.298 23.9351 34.1523 23.7072C33.0066 23.4793 31.819 23.5963 30.7398 24.0433C29.6606 24.4904 28.7381 25.2474 28.0891 26.2187C27.4401 27.1899 27.0938 28.3318 27.0938 29.5C27.0938 31.0664 27.716 32.5687 28.8237 33.6763C29.9313 34.784 31.4336 35.4062 33 35.4062ZM33 24.9062C33.9086 24.9062 34.7967 25.1757 35.5522 25.6804C36.3076 26.1852 36.8964 26.9026 37.2441 27.742C37.5918 28.5814 37.6827 29.5051 37.5055 30.3962C37.3282 31.2873 36.8907 32.1058 36.2483 32.7483C35.6058 33.3907 34.7873 33.8282 33.8962 34.0055C33.0051 34.1827 32.0814 34.0917 31.2421 33.7441C30.4027 33.3964 29.6852 32.8076 29.1804 32.0521C28.6757 31.2967 28.4063 30.4085 28.4063 29.5C28.4063 28.2816 28.8902 27.1132 29.7517 26.2517C30.6132 25.3902 31.7817 24.9062 33 24.9062Z" fill="#1F1E25"/>
</svg>
