<svg width="80" height="80" viewBox="0 0 80 80" fill="none" xmlns="http://www.w3.org/2000/svg">
<path d="M0 40C0 21.1438 0 11.7157 5.85786 5.85786C11.7157 0 21.1438 0 40 0C58.8562 0 68.2843 0 74.1421 5.85786C80 11.7157 80 21.1438 80 40C80 58.8562 80 68.2843 74.1421 74.1421C68.2843 80 58.8562 80 40 80C21.1438 80 11.7157 80 5.85786 74.1421C0 68.2843 0 58.8562 0 40Z" fill="#1F1E25"/>
<path d="M36.8275 20L25 42.8125H31.97L36.825 33.7425L41.65 42.8125H48.565L36.8275 20ZM48.565 42.8125L45.1325 49.7025L41.65 42.8125H36.3675L45.1325 60L53.8425 42.8125H48.565Z" fill="#CFC9F0"/>
</svg>
