<svg width="80" height="80" viewBox="0 0 80 80" fill="none" xmlns="http://www.w3.org/2000/svg">
<path d="M0 40C0 21.1438 0 11.7157 5.85786 5.85786C11.7157 0 21.1438 0 40 0C58.8562 0 68.2843 0 74.1421 5.85786C80 11.7157 80 21.1438 80 40C80 58.8562 80 68.2843 74.1421 74.1421C68.2843 80 58.8562 80 40 80C21.1438 80 11.7157 80 5.85786 74.1421C0 68.2843 0 58.8562 0 40Z" fill="#1F1E25"/>
<path d="M40 21.6666C37.5924 21.6666 35.2084 22.1408 32.9841 23.0622C30.7598 23.9835 28.7388 25.3339 27.0364 27.0363C23.5982 30.4745 21.6667 35.1377 21.6667 40C21.6667 48.1033 26.9283 54.9783 34.2067 57.4166C35.1233 57.5633 35.4167 56.995 35.4167 56.5V53.4016C30.3383 54.5016 29.2567 50.945 29.2567 50.945C28.4133 48.8183 27.2217 48.25 27.2217 48.25C25.5533 47.1133 27.35 47.15 27.35 47.15C29.1833 47.2783 30.155 49.0383 30.155 49.0383C31.75 51.825 34.445 51 35.49 50.56C35.655 49.3683 36.1317 48.5616 36.645 48.1033C32.575 47.645 28.3033 46.0683 28.3033 39.0833C28.3033 37.0483 29 35.4166 30.1917 34.115C30.0083 33.6566 29.3667 31.75 30.375 29.275C30.375 29.275 31.915 28.78 35.4167 31.145C36.865 30.7416 38.4417 30.54 40 30.54C41.5583 30.54 43.135 30.7416 44.5833 31.145C48.085 28.78 49.625 29.275 49.625 29.275C50.6333 31.75 49.9917 33.6566 49.8083 34.115C51 35.4166 51.6967 37.0483 51.6967 39.0833C51.6967 46.0866 47.4067 47.6266 43.3183 48.085C43.9783 48.6533 44.5833 49.7716 44.5833 51.4766V56.5C44.5833 56.995 44.8767 57.5816 45.8117 57.4166C53.09 54.96 58.3333 48.1033 58.3333 40C58.3333 37.5924 57.8591 35.2084 56.9378 32.9841C56.0165 30.7598 54.666 28.7387 52.9636 27.0363C51.2612 25.3339 49.2402 23.9835 47.0159 23.0622C44.7916 22.1408 42.4076 21.6666 40 21.6666Z" fill="#CFC9F0"/>
</svg>
