<svg width="80" height="80" viewBox="0 0 80 80" fill="none" xmlns="http://www.w3.org/2000/svg">
<path d="M0 40C0 21.1438 0 11.7157 5.85786 5.85786C11.7157 0 21.1438 0 40 0C58.8562 0 68.2843 0 74.1421 5.85786C80 11.7157 80 21.1438 80 40C80 58.8562 80 68.2843 74.1421 74.1421C68.2843 80 58.8562 80 40 80C21.1438 80 11.7157 80 5.85786 74.1421C0 68.2843 0 58.8562 0 40Z" fill="#FFD90F"/>
<g clip-path="url(#clip0_2_73)">
<path d="M55 31.8212V49.2075C55 50.3375 54.085 51.2525 52.955 51.2525H48.1812V39.6625L40 45.8L31.8188 39.6625V51.2537H27.045C26.7763 51.2537 26.5103 51.2008 26.2621 51.098C26.0139 50.9951 25.7884 50.8444 25.5985 50.6543C25.4086 50.4643 25.258 50.2387 25.1553 49.9905C25.0526 49.7422 24.9998 49.4761 25 49.2075V31.8212C25 29.2925 27.8863 27.8487 29.9088 29.3662L31.8188 30.8L40 36.935L48.1812 30.7975L50.0912 29.3662C52.1125 27.85 55 29.2925 55 31.8212Z" fill="#131016"/>
</g>
<defs>
<clipPath id="clip0_2_73">
<rect width="30" height="30" fill="white" transform="translate(25 25)"/>
</clipPath>
</defs>
</svg>
