<svg width="80" height="80" viewBox="0 0 80 80" fill="none" xmlns="http://www.w3.org/2000/svg">
<path d="M0 40C0 21.1438 0 11.7157 5.85786 5.85786C11.7157 0 21.1438 0 40 0C58.8562 0 68.2843 0 74.1421 5.85786C80 11.7157 80 21.1438 80 40C80 58.8562 80 68.2843 74.1421 74.1421C68.2843 80 58.8562 80 40 80C21.1438 80 11.7157 80 5.85786 74.1421C0 68.2843 0 58.8562 0 40Z" fill="#FFD90F"/>
<path d="M41.6667 55H35V35H41.6667V38.3333C42.3685 37.4404 43.2592 36.7139 44.275 36.2059C45.2907 35.6979 46.4063 35.421 47.5417 35.395C49.5273 35.406 51.4276 36.204 52.8257 37.6141C54.2238 39.0241 55.0058 40.931 55 42.9167V55H48.3333V43.75C48.2044 42.8493 47.7544 42.0255 47.0663 41.4301C46.3782 40.8348 45.4982 40.508 44.5883 40.51C44.1811 40.5229 43.7807 40.6179 43.411 40.7893C43.0414 40.9608 42.7103 41.2051 42.4374 41.5077C42.1645 41.8103 41.9556 42.1649 41.8232 42.5502C41.6907 42.9355 41.6375 43.3436 41.6667 43.75V55ZM31.6667 55H25V35H31.6667V55ZM28.3333 31.6667C27.4493 31.6667 26.6014 31.3155 25.9763 30.6904C25.3512 30.0652 25 29.2174 25 28.3333C25 27.4493 25.3512 26.6014 25.9763 25.9763C26.6014 25.3512 27.4493 25 28.3333 25C29.2174 25 30.0652 25.3512 30.6904 25.9763C31.3155 26.6014 31.6667 27.4493 31.6667 28.3333C31.6667 29.2174 31.3155 30.0652 30.6904 30.6904C30.0652 31.3155 29.2174 31.6667 28.3333 31.6667Z" fill="#131016"/>
</svg>
