<svg width="80" height="80" viewBox="0 0 80 80" fill="none" xmlns="http://www.w3.org/2000/svg">
<path d="M0 40C0 21.1438 0 11.7157 5.85786 5.85786C11.7157 0 21.1438 0 40 0C58.8562 0 68.2843 0 74.1421 5.85786C80 11.7157 80 21.1438 80 40C80 58.8562 80 68.2843 74.1421 74.1421C68.2843 80 58.8562 80 40 80C21.1438 80 11.7157 80 5.85786 74.1421C0 68.2843 0 58.8562 0 40Z" fill="#1F1E25"/>
<path d="M33 23.3334H47C52.3333 23.3334 56.6667 27.6667 56.6667 33V47C56.6667 49.5638 55.6482 52.0226 53.8354 53.8354C52.0225 55.6483 49.5638 56.6667 47 56.6667H33C27.6667 56.6667 23.3333 52.3334 23.3333 47V33C23.3333 30.4363 24.3518 27.9775 26.1646 26.1647C27.9775 24.3518 30.4363 23.3334 33 23.3334ZM32.6667 26.6667C31.0754 26.6667 29.5493 27.2988 28.424 28.4241C27.2988 29.5493 26.6667 31.0754 26.6667 32.6667V47.3334C26.6667 50.65 29.35 53.3334 32.6667 53.3334H47.3333C48.9246 53.3334 50.4508 52.7012 51.576 51.576C52.7012 50.4508 53.3333 48.9247 53.3333 47.3334V32.6667C53.3333 29.35 50.65 26.6667 47.3333 26.6667H32.6667ZM48.75 29.1667C49.3025 29.1667 49.8325 29.3862 50.2232 29.7769C50.6139 30.1676 50.8333 30.6975 50.8333 31.25C50.8333 31.8026 50.6139 32.3325 50.2232 32.7232C49.8325 33.1139 49.3025 33.3334 48.75 33.3334C48.1975 33.3334 47.6676 33.1139 47.2769 32.7232C46.8862 32.3325 46.6667 31.8026 46.6667 31.25C46.6667 30.6975 46.8862 30.1676 47.2769 29.7769C47.6676 29.3862 48.1975 29.1667 48.75 29.1667ZM40 31.6667C42.2101 31.6667 44.3298 32.5447 45.8926 34.1075C47.4554 35.6703 48.3333 37.7899 48.3333 40C48.3333 42.2102 47.4554 44.3298 45.8926 45.8926C44.3298 47.4554 42.2101 48.3334 40 48.3334C37.7899 48.3334 35.6703 47.4554 34.1075 45.8926C32.5447 44.3298 31.6667 42.2102 31.6667 40C31.6667 37.7899 32.5447 35.6703 34.1075 34.1075C35.6703 32.5447 37.7899 31.6667 40 31.6667ZM40 35C38.6739 35 37.4022 35.5268 36.4645 36.4645C35.5268 37.4022 35 38.674 35 40C35 41.3261 35.5268 42.5979 36.4645 43.5356C37.4022 44.4733 38.6739 45 40 45C41.3261 45 42.5979 44.4733 43.5355 43.5356C44.4732 42.5979 45 41.3261 45 40C45 38.674 44.4732 37.4022 43.5355 36.4645C42.5979 35.5268 41.3261 35 40 35Z" fill="#CFC9F0"/>
</svg>
