<svg width="80" height="80" viewBox="0 0 80 80" fill="none" xmlns="http://www.w3.org/2000/svg">
<path d="M0 40C0 21.1438 0 11.7157 5.85786 5.85786C11.7157 0 21.1438 0 40 0C58.8562 0 68.2843 0 74.1421 5.85786C80 11.7157 80 21.1438 80 40C80 58.8562 80 68.2843 74.1421 74.1421C68.2843 80 58.8562 80 40 80C21.1438 80 11.7157 80 5.85786 74.1421C0 68.2843 0 58.8562 0 40Z" fill="#1F1E25"/>
<path d="M58.5453 34.1563L41.3578 24.411C40.9444 24.1743 40.4764 24.0498 40 24.0498C39.5237 24.0498 39.0556 24.1743 38.6422 24.411L21.4547 34.1563C21.2406 34.2758 21.0624 34.4504 20.9385 34.6619C20.8146 34.8735 20.7495 35.1143 20.75 35.3594V46.3594C20.7495 46.6046 20.8146 46.8454 20.9385 47.0569C21.0624 47.2685 21.2406 47.443 21.4547 47.5626L38.6422 57.3079C39.0556 57.5445 39.5237 57.6691 40 57.6691C40.4764 57.6691 40.9444 57.5445 41.3578 57.3079L58.5453 47.5626C58.7594 47.443 58.9376 47.2685 59.0615 47.0569C59.1854 46.8454 59.2505 46.6046 59.25 46.3594V35.3594C59.2505 35.1143 59.1854 34.8735 59.0615 34.6619C58.9376 34.4504 58.7594 34.2758 58.5453 34.1563ZM56.5 44.0047L50.9656 40.8594L56.5 37.7141V44.0047ZM48.1813 39.2782L41.375 35.411V27.5735L55.0906 35.3594L48.1813 39.2782ZM40 43.9188L34.6031 40.8594L40 37.8001L45.3969 40.8594L40 43.9188ZM38.625 27.5735V35.411L31.8188 39.2782L24.9094 35.3594L38.625 27.5735ZM23.5 37.7141L29.0344 40.8594L23.5 44.0047V37.7141ZM31.8188 42.4407L38.625 46.3079V54.1454L24.9094 46.3594L31.8188 42.4407ZM41.375 54.1454V46.3079L48.1813 42.4407L55.0906 46.3594L41.375 54.1454Z" fill="#CFC9F0"/>
</svg>
