<svg width="30" height="30" viewBox="0 0 30 30" fill="none" xmlns="http://www.w3.org/2000/svg">
<path d="M25.3125 7.73438H20.3906V6.5625C20.3875 5.87969 20.1149 5.22572 19.6321 4.7429C19.1493 4.26007 18.4953 3.98746 17.8125 3.98438H12.1875C11.5047 3.98746 10.8507 4.26007 10.3679 4.7429C9.88507 5.22572 9.61246 5.87969 9.60938 6.5625V7.73438H4.6875C4.25238 7.73438 3.83508 7.90723 3.5274 8.2149C3.21973 8.52258 3.04688 8.93988 3.04688 9.375V24.375C3.04688 24.8101 3.21973 25.2274 3.5274 25.5351C3.83508 25.8428 4.25238 26.0156 4.6875 26.0156H25.3125C25.7476 26.0156 26.1649 25.8428 26.4726 25.5351C26.7803 25.2274 26.9531 24.8101 26.9531 24.375V9.375C26.9531 8.93988 26.7803 8.52258 26.4726 8.2149C26.1649 7.90723 25.7476 7.73438 25.3125 7.73438ZM11.0156 6.5625C11.0156 6.2517 11.1391 5.95363 11.3589 5.73386C11.5786 5.51409 11.8767 5.39062 12.1875 5.39062H17.8125C18.1233 5.39062 18.4214 5.51409 18.6411 5.73386C18.8609 5.95363 18.9844 6.2517 18.9844 6.5625V7.73438H11.0156V6.5625ZM18.9844 9.14062V24.6094H11.0156V9.14062H18.9844ZM4.45312 24.375V9.375C4.45312 9.31284 4.47782 9.25323 4.52177 9.20927C4.56573 9.16532 4.62534 9.14062 4.6875 9.14062H9.60938V24.6094H4.6875C4.62534 24.6094 4.56573 24.5847 4.52177 24.5407C4.47782 24.4968 4.45312 24.4372 4.45312 24.375ZM25.5469 24.375C25.5469 24.4372 25.5222 24.4968 25.4782 24.5407C25.4343 24.5847 25.3747 24.6094 25.3125 24.6094H20.3906V9.14062H25.3125C25.3747 9.14062 25.4343 9.16532 25.4782 9.20927C25.5222 9.25323 25.5469 9.31284 25.5469 9.375V24.375Z" fill="#FFD90F"/>
</svg>
