<svg width="22" height="22" viewBox="0 0 22 22" fill="none" xmlns="http://www.w3.org/2000/svg">
<g clip-path="url(#clip0_5_72)">
<path d="M11.0611 6.72223C8.67777 6.72223 6.78333 8.61667 6.78333 11C6.78333 13.3833 8.67777 15.2778 11.0611 15.2778C13.4444 15.2778 15.3389 13.3833 15.3389 11C15.3389 8.61667 13.4444 6.72223 11.0611 6.72223ZM11.0611 14.0556C9.34999 14.0556 8.00555 12.7111 8.00555 11C8.00555 9.2889 9.34999 7.94445 11.0611 7.94445C12.7722 7.94445 14.1167 9.2889 14.1167 11C14.1167 12.7111 12.7722 14.0556 11.0611 14.0556Z" fill="#FFD90F"/>
<path d="M20.0445 8.98334L18.3333 8.43334L17.9667 7.51667L18.8222 5.92778C19.0056 5.56112 18.9445 5.07223 18.6389 4.76667L17.1722 3.30001C16.8667 2.99445 16.3778 2.93334 16.0111 3.11667L14.4222 3.97223L13.5056 3.60556L12.9556 1.89445C12.8333 1.52778 12.4667 1.22223 12.0389 1.22223H9.96112C9.53334 1.22223 9.16667 1.52778 9.10556 1.95556L8.55556 3.66667C8.1889 3.72778 7.88334 3.85001 7.57779 4.03334L5.9889 3.17778C5.62223 2.99445 5.13334 3.05556 4.82779 3.36112L3.36112 4.82779C3.05556 5.13334 2.99445 5.62223 3.17778 5.9889L3.97223 7.51667C3.85001 7.82223 3.72778 8.1889 3.60556 8.49445L1.89445 9.04445C1.52778 9.16667 1.22223 9.53334 1.22223 9.96112V12.0389C1.22223 12.4667 1.52778 12.8333 1.95556 12.9556L3.66667 13.5056L4.03334 14.4222L3.17778 16.0111C2.99445 16.3778 3.05556 16.8667 3.36112 17.1722L4.82779 18.6389C5.13334 18.9445 5.62223 19.0056 5.9889 18.8222L7.57779 17.9667L8.49445 18.3333L9.04445 20.1056C9.16667 20.4722 9.53334 20.7778 9.96112 20.7778H12.0389C12.4667 20.7778 12.8333 20.4722 12.9556 20.1056L13.5056 18.3333L14.4222 17.9667L16.0111 18.8222C16.3778 19.0056 16.8667 18.9445 17.1722 18.6389L18.6389 17.1722C18.9445 16.8667 19.0056 16.3778 18.8222 16.0111L17.9667 14.4222L18.3333 13.5056L20.1056 12.9556C20.4722 12.8333 20.7778 12.4667 20.7778 12.0389V9.96112C20.7778 9.53334 20.4722 9.10556 20.0445 8.98334ZM19.5556 11.8556L17.3556 12.5278L17.2945 12.8333L16.7445 14.1167L16.5611 14.4222L17.6611 16.4389L16.4389 17.6611L14.4222 16.5611L14.1167 16.7445C13.6889 16.9889 13.2611 17.1722 12.8333 17.2945L12.5278 17.3556L11.8556 19.5556H10.1445L9.47223 17.3556L9.16667 17.2945L7.88334 16.7445L7.57779 16.5611L5.56112 17.6611L4.3389 16.4389L5.4389 14.4222L5.25556 14.1167C5.01112 13.6889 4.82778 13.2611 4.70556 12.8333L4.64445 12.5278L2.44445 11.8556V10.1445L4.52223 9.53334L4.64445 9.22779C4.76667 8.7389 4.95001 8.31112 5.19445 7.88334L5.37779 7.57779L4.3389 5.56112L5.56112 4.3389L7.51667 5.4389L7.82223 5.25556C8.25001 5.01112 8.67779 4.82778 9.16667 4.70556L9.47223 4.58334L10.1445 2.44445H11.8556L12.5278 4.58334L12.8333 4.70556C13.2611 4.82778 13.6889 5.01112 14.1167 5.25556L14.4222 5.4389L16.4389 4.3389L17.6611 5.56112L16.5611 7.57779L16.7445 7.88334C16.9889 8.31112 17.1722 8.7389 17.2945 9.16667L17.3556 9.47223L19.5556 10.1445V11.8556Z" fill="#FFD90F"/>
</g>
<defs>
<clipPath id="clip0_5_72">
<rect width="22" height="22" fill="white"/>
</clipPath>
</defs>
</svg>
