<svg width="28" height="28" viewBox="0 0 28 28" fill="none" xmlns="http://www.w3.org/2000/svg">
<path d="M12.25 3.5H5.25C4.78587 3.5 4.34075 3.68437 4.01256 4.01256C3.68437 4.34075 3.5 4.78587 3.5 5.25V18.0833C3.5 18.5475 3.68437 18.9926 4.01256 19.3208C4.34075 19.649 4.78587 19.8333 5.25 19.8333H22.75C23.2141 19.8333 23.6592 19.649 23.9874 19.3208C24.3156 18.9926 24.5 18.5475 24.5 18.0833V12.25M14 19.8333V24.5" stroke="#FFD90F" stroke-width="2" stroke-linecap="round" stroke-linejoin="round"/>
<path d="M18.6667 3.5L16.3333 5.83333L18.6667 8.16667M22.1667 3.5L24.5 5.83333L22.1667 8.16667M8.16666 24.5H19.8333" stroke="#FFD90F" stroke-width="2" stroke-linecap="round" stroke-linejoin="round"/>
</svg>
