<svg width="30" height="30" viewBox="0 0 30 30" fill="none" xmlns="http://www.w3.org/2000/svg">
<path d="M26.9531 15C26.9532 13.0115 26.4571 11.0544 25.5099 9.30592C24.5627 7.55748 23.1943 6.07298 21.5286 4.98689C19.8628 3.9008 17.9525 3.24743 15.9705 3.08598C13.9885 2.92452 11.9976 3.26008 10.1781 4.06226C8.35853 4.86443 6.76786 6.10788 5.55016 7.67996C4.33246 9.25204 3.5262 11.1031 3.20441 13.0654C2.88263 15.0277 3.0555 17.0393 3.70735 18.9179C4.3592 20.7966 5.46944 22.4829 6.9375 23.8242L7.07813 23.9414C9.26139 25.8804 12.08 26.9514 15 26.9514C17.92 26.9514 20.7386 25.8804 22.9219 23.9414L23.0625 23.8242C24.2895 22.7052 25.2693 21.3423 25.9392 19.8228C26.6092 18.3033 26.9545 16.6606 26.9531 15ZM4.45313 15C4.45077 13.2782 4.87 11.582 5.6742 10.0595C6.47839 8.53705 7.6431 7.23462 9.06661 6.26597C10.4901 5.29733 12.1291 4.69192 13.8405 4.50263C15.5519 4.31334 17.2836 4.54592 18.8844 5.18006C20.4851 5.8142 21.9063 6.83061 23.0238 8.14052C24.1413 9.45044 24.9211 11.014 25.2951 12.6947C25.6691 14.3754 25.6259 16.1222 25.1693 17.7823C24.7127 19.4425 23.8566 20.9657 22.6758 22.2188C21.5683 20.5055 19.9176 19.2138 17.9883 18.5508C18.9514 17.9093 19.6825 16.975 20.0735 15.8859C20.4645 14.7968 20.4947 13.6108 20.1597 12.5032C19.8246 11.3956 19.142 10.4253 18.2128 9.73564C17.2836 9.04598 16.1572 8.67362 15 8.67362C13.8428 8.67362 12.7164 9.04598 11.7872 9.73564C10.858 10.4253 10.1754 11.3956 9.84035 12.5032C9.50526 13.6108 9.53546 14.7968 9.9265 15.8859C10.3175 16.975 11.0486 17.9093 12.0117 18.5508C10.0824 19.2138 8.43171 20.5055 7.32422 22.2188C5.47845 20.2687 4.45086 17.6851 4.45313 15ZM11.0156 14.0625C11.0156 13.2745 11.2493 12.5041 11.6871 11.8489C12.1249 11.1937 12.7472 10.683 13.4752 10.3814C14.2033 10.0799 15.0044 10.0009 15.7773 10.1547C16.5502 10.3084 17.2602 10.6879 17.8174 11.2451C18.3746 11.8023 18.7541 12.5123 18.9078 13.2852C19.0616 14.0581 18.9827 14.8592 18.6811 15.5873C18.3795 16.3153 17.8688 16.9376 17.2136 17.3754C16.5584 17.8132 15.788 18.0469 15 18.0469C13.9442 18.0438 12.9326 17.623 12.186 16.8765C11.4395 16.1299 11.0187 15.1183 11.0156 14.0625ZM8.36719 23.2031C9.0565 22.0604 10.0294 21.1151 11.1915 20.459C12.3535 19.8028 13.6655 19.458 15 19.458C16.3345 19.458 17.6465 19.8028 18.8085 20.459C19.9706 21.1151 20.9435 22.0604 21.6328 23.2031C19.7547 24.7195 17.4138 25.5465 15 25.5465C12.5862 25.5465 10.2453 24.7195 8.36719 23.2031Z" fill="#FFD90F"/>
</svg>
