<svg width="60" height="60" viewBox="0 0 60 60" fill="none" xmlns="http://www.w3.org/2000/svg">
<path d="M53.9063 30C53.9064 26.023 52.9143 22.1087 51.0199 18.6118C49.1255 15.115 46.3886 12.146 43.0571 9.97378C39.7257 7.80159 35.9049 6.49486 31.941 6.17195C27.9771 5.84904 23.9952 6.52016 20.3562 8.12452C16.7171 9.72887 13.5357 12.2158 11.1003 15.3599C8.66491 18.5041 7.05239 22.2061 6.40883 26.1308C5.76527 30.0554 6.11099 34.0786 7.4147 37.8359C8.7184 41.5932 10.9389 44.9659 13.875 47.6484L14.1563 47.8828C18.5228 51.7609 24.16 53.9028 30 53.9028C35.84 53.9028 41.4772 51.7609 45.8438 47.8828L46.125 47.6484C48.5789 45.4103 50.5386 42.6846 51.8785 39.6455C53.2184 36.6065 53.909 33.3213 53.9063 30ZM8.90625 30C8.90154 26.5564 9.74 23.164 11.3484 20.119C12.9568 17.0741 15.2862 14.4692 18.1332 12.5319C20.9802 10.5947 24.2583 9.38385 27.681 9.00527C31.1038 8.62668 34.5672 9.09184 37.7687 10.3601C40.9703 11.6284 43.8127 13.6612 46.0476 16.281C48.2826 18.9009 49.8422 22.0281 50.5901 25.3895C51.3381 28.7509 51.2518 32.2443 50.3386 35.5647C49.4254 38.885 47.7132 41.9313 45.3516 44.4375C43.1366 41.011 39.8351 38.4276 35.9766 37.1016C37.9027 35.8186 39.3649 33.9499 40.147 31.7718C40.9291 29.5936 40.9895 27.2216 40.3193 25.0064C39.6491 22.7913 38.2839 20.8506 36.4256 19.4713C34.5672 18.092 32.3143 17.3472 30 17.3472C27.6857 17.3472 25.4328 18.092 23.5744 19.4713C21.7161 20.8506 20.3509 22.7913 19.6807 25.0064C19.0105 27.2216 19.0709 29.5936 19.853 31.7718C20.6351 33.9499 22.0973 35.8186 24.0234 37.1016C20.1649 38.4276 16.8634 41.011 14.6484 44.4375C10.9569 40.5374 8.90172 35.3701 8.90625 30ZM22.0313 28.125C22.0313 26.5489 22.4986 25.0083 23.3742 23.6978C24.2498 22.3874 25.4944 21.366 26.9505 20.7628C28.4066 20.1597 30.0088 20.0019 31.5546 20.3094C33.1004 20.6168 34.5203 21.3758 35.6348 22.4902C36.7492 23.6047 37.5082 25.0246 37.8156 26.5704C38.1231 28.1162 37.9653 29.7184 37.3622 31.1745C36.759 32.6306 35.7377 33.8752 34.4272 34.7508C33.1168 35.6264 31.5761 36.0938 30 36.0938C27.8885 36.0876 25.8652 35.246 24.3721 33.7529C22.879 32.2598 22.0374 30.2365 22.0313 28.125ZM16.7344 46.4063C18.113 44.1208 20.0587 42.2302 22.3829 40.9179C24.7071 39.6056 27.3309 38.916 30 38.916C32.6691 38.916 35.2929 39.6056 37.6171 40.9179C39.9413 42.2302 41.887 44.1208 43.2656 46.4063C39.5095 49.4389 34.8276 51.093 30 51.093C25.1724 51.093 20.4905 49.4389 16.7344 46.4063Z" fill="#FFD90F"/>
</svg>
