<svg width="60" height="60" viewBox="0 0 60 60" fill="none" xmlns="http://www.w3.org/2000/svg">
<path d="M50.1563 22.5C50.1576 19.0941 49.2958 15.7434 47.6514 12.7607C46.007 9.77808 43.6336 7.26076 40.7528 5.4438C37.872 3.62684 34.5778 2.5695 31.1777 2.3705C27.7776 2.1715 24.3825 2.83732 21.3095 4.30581C18.2364 5.7743 15.5855 7.99757 13.6044 10.768C11.6233 13.5385 10.3765 16.7658 9.98048 20.1486C9.58445 23.5314 10.0521 26.9594 11.3397 30.1125C12.6273 33.2657 14.693 36.0411 17.3438 38.1797V56.25C17.3449 56.4881 17.4056 56.7222 17.5202 56.9309C17.6348 57.1397 17.7997 57.3165 18 57.4453C18.2065 57.5712 18.441 57.6435 18.6825 57.6558C18.924 57.668 19.1647 57.6199 19.3828 57.5156L30 52.1953L40.6172 57.5156C40.8158 57.6067 41.0315 57.6546 41.25 57.6563C41.5145 57.6555 41.7739 57.5826 42 57.4453C42.2003 57.3165 42.3652 57.1397 42.4798 56.9309C42.5944 56.7222 42.6551 56.4881 42.6563 56.25V38.1797C44.9982 36.2924 46.8876 33.9043 48.1855 31.1909C49.4834 28.4775 50.1568 25.5078 50.1563 22.5ZM12.6563 22.5C12.6563 19.0697 13.6734 15.7165 15.5792 12.8643C17.485 10.0122 20.1937 7.78917 23.3628 6.47647C26.532 5.16376 30.0192 4.82029 33.3836 5.48951C36.748 6.15872 39.8383 7.81055 42.2639 10.2361C44.6895 12.6617 46.3413 15.752 47.0105 19.1164C47.6797 22.4808 47.3362 25.968 46.0235 29.1372C44.7108 32.3063 42.4878 35.015 39.6357 36.9208C36.7835 38.8266 33.4303 39.8438 30 39.8438C25.4021 39.8376 20.9942 38.0083 17.743 34.757C14.4917 31.5058 12.6625 27.0979 12.6563 22.5ZM39.8438 53.9766L30.6328 49.3594C30.4346 49.2672 30.2186 49.2194 30 49.2194C29.7814 49.2194 29.5654 49.2672 29.3672 49.3594L20.1563 53.9766V40.0781C23.1619 41.768 26.5519 42.6556 30 42.6556C33.4481 42.6556 36.8381 41.768 39.8438 40.0781V53.9766ZM30 35.1563C32.5032 35.1563 34.9501 34.414 37.0314 33.0233C39.1127 31.6326 40.7349 29.656 41.6929 27.3433C42.6508 25.0307 42.9014 22.486 42.4131 20.0309C41.9247 17.5758 40.7193 15.3207 38.9493 13.5507C37.1793 11.7807 34.9242 10.5753 32.4691 10.0869C30.014 9.59859 27.4693 9.84923 25.1567 10.8071C22.844 11.7651 20.8674 13.3873 19.4767 15.4686C18.086 17.5499 17.3438 19.9968 17.3438 22.5C17.3438 25.8566 18.6772 29.0758 21.0507 31.4493C23.4242 33.8228 26.6434 35.1563 30 35.1563ZM30 12.6563C31.9469 12.6563 33.8501 13.2336 35.4689 14.3152C37.0877 15.3969 38.3494 16.9343 39.0944 18.733C39.8395 20.5317 40.0344 22.5109 39.6546 24.4204C39.2748 26.3299 38.3373 28.0839 36.9606 29.4606C35.5839 30.8373 33.8299 31.7748 31.9204 32.1546C30.0109 32.5344 28.0317 32.3395 26.233 31.5944C24.4343 30.8494 22.8969 29.5877 21.8152 27.9689C20.7336 26.3501 20.1563 24.4469 20.1563 22.5C20.1563 19.8893 21.1934 17.3855 23.0394 15.5394C24.8855 13.6934 27.3893 12.6563 30 12.6563Z" fill="#FFD90F"/>
</svg>
