<svg width="28" height="28" viewBox="0 0 28 28" fill="none" xmlns="http://www.w3.org/2000/svg">
<path d="M12.8333 3.50002H5.25C4.78587 3.50002 4.34075 3.6844 4.01256 4.01258C3.68437 4.34077 3.5 4.78589 3.5 5.25002V18.0834C3.5 18.5475 3.68437 18.9926 4.01256 19.3208C4.34075 19.649 4.78587 19.8334 5.25 19.8334H22.75C23.2141 19.8334 23.6592 19.649 23.9874 19.3208C24.3156 18.9926 24.5 18.5475 24.5 18.0834V12.8334M14 19.8334V24.5M8.16667 24.5H19.8333M19.425 3.50002C18.3622 3.50002 17.5 4.33711 17.5 5.36961C17.5 7.2386 19.775 8.93785 21 9.33335C22.225 8.93785 24.5 7.23919 24.5 5.36961C24.5 4.33711 23.6384 3.50002 22.575 3.50002C22.2684 3.49857 21.9658 3.56982 21.692 3.70792C21.4182 3.84602 21.1811 4.04705 21 4.29452C20.8189 4.04705 20.5818 3.84602 20.308 3.70792C20.0342 3.56982 19.7316 3.49857 19.425 3.50002Z" stroke="#FFD90F" stroke-width="2" stroke-linecap="round" stroke-linejoin="round"/>
</svg>
