<svg width="28" height="28" viewBox="0 0 28 28" fill="none" xmlns="http://www.w3.org/2000/svg">
<path d="M14.5355 1.93728C14.3802 1.81623 14.189 1.75049 13.9921 1.75049C13.7953 1.75049 13.604 1.81623 13.4487 1.93728L0.875 11.7416L1.96263 13.1172L3.5 11.9184V22.75C3.50092 23.2139 3.6856 23.6585 4.01358 23.9864C4.34157 24.3144 4.78616 24.4991 5.25 24.5H22.75C23.2138 24.4991 23.6584 24.3144 23.9864 23.9864C24.3144 23.6585 24.4991 23.2139 24.5 22.75V11.9263L26.0374 13.125L27.125 11.7495L14.5355 1.93728ZM15.75 22.75H12.25V15.75H15.75V22.75ZM17.5 22.75V15.75C17.4995 15.286 17.315 14.8412 16.9869 14.5131C16.6588 14.185 16.214 14.0005 15.75 14H12.25C11.786 14.0005 11.3412 14.185 11.0131 14.5131C10.685 14.8412 10.5005 15.286 10.5 15.75V22.75H5.25V10.5543L14 3.73802L22.75 10.563V22.75H17.5Z" fill="#FFD90F"/>
</svg>
