<svg width="30" height="30" viewBox="0 0 30 30" fill="none" xmlns="http://www.w3.org/2000/svg">
<path d="M25.0781 11.2499C25.0788 9.54698 24.6479 7.87163 23.8257 6.38031C23.0035 4.88898 21.8168 3.63032 20.3764 2.72184C18.936 1.81336 17.2889 1.28469 15.5889 1.18519C13.8888 1.08569 12.1913 1.4186 10.6547 2.15285C9.11819 2.88709 7.79277 3.99872 6.80221 5.38395C5.81165 6.76918 5.18826 8.38282 4.99024 10.0742C4.79222 11.7656 5.02604 13.4796 5.66985 15.0562C6.31367 16.6328 7.34649 18.0205 8.67188 19.0898V28.1249C8.67247 28.244 8.70279 28.361 8.7601 28.4654C8.8174 28.5698 8.89986 28.6582 9 28.7226C9.10323 28.7855 9.22052 28.8217 9.34125 28.8278C9.46198 28.834 9.58233 28.8099 9.69141 28.7578L15 26.0976L20.3086 28.7578C20.4079 28.8033 20.5158 28.8272 20.625 28.8281C20.7573 28.8277 20.8869 28.7912 21 28.7226C21.1001 28.6582 21.1826 28.5698 21.2399 28.4654C21.2972 28.361 21.3275 28.244 21.3281 28.1249V19.0898C22.4991 18.1461 23.4438 16.9521 24.0927 15.5954C24.7417 14.2387 25.0784 12.7538 25.0781 11.2499ZM6.32813 11.2499C6.32813 9.5348 6.83672 7.85819 7.7896 6.4321C8.74248 5.00602 10.0968 3.89453 11.6814 3.23817C13.266 2.58182 15.0096 2.41009 16.6918 2.74469C18.374 3.0793 19.9192 3.90521 21.1319 5.118C22.3447 6.33078 23.1706 7.87596 23.5052 9.55814C23.8399 11.2403 23.6681 12.9839 23.0118 14.5685C22.3554 16.1531 21.2439 17.5075 19.8178 18.4603C18.3918 19.4132 16.7151 19.9218 15 19.9218C12.701 19.9187 10.4971 19.0041 8.87149 17.3785C7.24587 15.7528 6.33123 13.5489 6.32813 11.2499ZM19.9219 26.9882L15.3164 24.6796C15.2173 24.6335 15.1093 24.6096 15 24.6096C14.8907 24.6096 14.7827 24.6335 14.6836 24.6796L10.0781 26.9882V20.039C11.5809 20.8839 13.276 21.3278 15 21.3278C16.724 21.3278 18.4191 20.8839 19.9219 20.039V26.9882ZM15 17.5781C16.2516 17.5781 17.4751 17.2069 18.5157 16.5116C19.5564 15.8162 20.3675 14.8279 20.8464 13.6716C21.3254 12.5153 21.4507 11.2429 21.2065 10.0154C20.9624 8.78785 20.3597 7.66028 19.4747 6.77528C18.5897 5.89028 17.4621 5.28758 16.2346 5.04341C15.007 4.79924 13.7346 4.92455 12.5783 5.40351C11.422 5.88247 10.4337 6.69357 9.73836 7.73422C9.04302 8.77488 8.67188 9.99835 8.67188 11.2499C8.67188 12.9283 9.33859 14.5378 10.5253 15.7246C11.7121 16.9114 13.3217 17.5781 15 17.5781ZM15 6.32806C15.9735 6.32806 16.9251 6.61673 17.7344 7.15755C18.5438 7.69837 19.1747 8.46706 19.5472 9.36642C19.9197 10.2658 20.0172 11.2554 19.8273 12.2101C19.6374 13.1649 19.1686 14.0419 18.4803 14.7302C17.792 15.4186 16.915 15.8873 15.9602 16.0772C15.0055 16.2672 14.0158 16.1697 13.1165 15.7972C12.2171 15.4246 11.4484 14.7938 10.9076 13.9844C10.3668 13.175 10.0781 12.2234 10.0781 11.2499C10.0781 9.94458 10.5967 8.69268 11.5197 7.76965C12.4427 6.84662 13.6946 6.32806 15 6.32806Z" fill="#FFD90F"/>
</svg>
