<svg width="20" height="20" viewBox="0 0 20 20" fill="none" xmlns="http://www.w3.org/2000/svg">
<path d="M10 17.3594C9.8357 17.3608 9.6728 17.3291 9.52109 17.266C9.36938 17.2029 9.23199 17.1097 9.11719 16.9922L2.625 10.5C2.17439 10.0506 1.82018 9.51398 1.58403 8.923C1.34788 8.33202 1.23475 7.69908 1.25157 7.06288C1.26839 6.42669 1.4148 5.80061 1.68185 5.22293C1.94889 4.64525 2.33096 4.12811 2.80469 3.70313C3.25931 3.29468 3.79224 2.98294 4.37109 2.78685C4.94994 2.59077 5.56261 2.51444 6.17188 2.5625C7.3967 2.64207 8.55002 3.16732 9.41407 4.03907L10 4.61719L10.75 3.875C11.1994 3.42439 11.736 3.07018 12.327 2.83403C12.918 2.59788 13.5509 2.48475 14.1871 2.50157C14.8233 2.51839 15.4494 2.6648 16.0271 2.93185C16.6048 3.19889 17.1219 3.58096 17.5469 4.05469C17.9553 4.50931 18.2671 5.04224 18.4632 5.62109C18.6592 6.19994 18.7356 6.81261 18.6875 7.42188C18.6079 8.6467 18.0827 9.80002 17.2109 10.6641L10.8828 16.9922C10.768 17.1097 10.6306 17.2029 10.4789 17.266C10.3272 17.3291 10.1643 17.3608 10 17.3594ZM5.85938 3.80469C5.04417 3.79647 4.25442 4.08845 3.64063 4.625C3.29267 4.93711 3.01202 5.31691 2.81584 5.74117C2.61965 6.16543 2.51206 6.62525 2.49963 7.09251C2.48719 7.55977 2.57019 8.02466 2.74354 8.45875C2.91689 8.89284 3.17695 9.28702 3.50782 9.61719L10.4453 16.5547L10 16.1094L16.3281 9.78125C17.6953 8.42188 17.8203 6.22657 16.625 4.89063C16.3129 4.54267 15.9331 4.26202 15.5088 4.06584C15.0846 3.86965 14.6248 3.76206 14.1575 3.74963C13.6902 3.73719 13.2254 3.82019 12.7913 3.99354C12.3572 4.16689 11.963 4.42695 11.6328 4.75782L10.4453 5.94532C10.3268 6.06268 10.1668 6.12852 10 6.12852C9.83322 6.12852 9.67319 6.06268 9.55469 5.94532L8.53125 4.92188C8.18115 4.56923 7.76497 4.28905 7.30651 4.09735C6.84805 3.90566 6.3563 3.80621 5.85938 3.80469Z" fill="#FFD90F"/>
</svg>
