<svg width="50" height="56" viewBox="0 0 50 56" fill="none" xmlns="http://www.w3.org/2000/svg">
<path d="M41.8806 14.4375H33.7372V12.25C33.7321 10.9754 33.281 9.75468 32.4822 8.85341C31.6833 7.95213 30.6013 7.44325 29.4715 7.4375H20.1647C19.035 7.44325 17.953 7.95213 17.1541 8.85341C16.3552 9.75468 15.9042 10.9754 15.8991 12.25V14.4375H7.75563C7.0357 14.4375 6.34526 14.7602 5.83619 15.3345C5.32713 15.9088 5.04114 16.6878 5.04114 17.5V45.5C5.04114 46.3122 5.32713 47.0912 5.83619 47.6655C6.34526 48.2398 7.0357 48.5625 7.75563 48.5625H41.8806C42.6006 48.5625 43.291 48.2398 43.8001 47.6655C44.3091 47.0912 44.5951 46.3122 44.5951 45.5V17.5C44.5951 16.6878 44.3091 15.9088 43.8001 15.3345C43.291 14.7602 42.6006 14.4375 41.8806 14.4375ZM18.2258 12.25C18.2258 11.6698 18.4301 11.1134 18.7937 10.7032C19.1573 10.293 19.6505 10.0625 20.1647 10.0625H29.4715C29.9858 10.0625 30.4789 10.293 30.8426 10.7032C31.2062 11.1134 31.4105 11.6698 31.4105 12.25V14.4375H18.2258V12.25ZM31.4105 17.0625V45.9375H18.2258V17.0625H31.4105ZM7.36784 45.5V17.5C7.36784 17.384 7.4087 17.2727 7.48142 17.1906C7.55414 17.1086 7.65278 17.0625 7.75563 17.0625H15.8991V45.9375H7.75563C7.65278 45.9375 7.55414 45.8914 7.48142 45.8094C7.4087 45.7273 7.36784 45.616 7.36784 45.5ZM42.2684 45.5C42.2684 45.616 42.2276 45.7273 42.1548 45.8094C42.0821 45.8914 41.9835 45.9375 41.8806 45.9375H33.7372V17.0625H41.8806C41.9835 17.0625 42.0821 17.1086 42.1548 17.1906C42.2276 17.2727 42.2684 17.384 42.2684 17.5V45.5Z" fill="#FFD90F"/>
</svg>
