<svg width="150" height="36" viewBox="0 0 150 36" fill="none" xmlns="http://www.w3.org/2000/svg">
<path d="M0 18C0 10.5005 0 6.7508 1.90983 4.12215C2.52663 3.2732 3.2732 2.52663 4.12215 1.90983C6.7508 0 10.5005 0 18 0H132C139.499 0 143.249 0 145.878 1.90983C146.727 2.52663 147.473 3.2732 148.09 4.12215C150 6.7508 150 10.5005 150 18C150 25.4995 150 29.2492 148.09 31.8779C147.473 32.7268 146.727 33.4734 145.878 34.0902C143.249 36 139.499 36 132 36H18C10.5005 36 6.7508 36 4.12215 34.0902C3.2732 33.4734 2.52663 32.7268 1.90983 31.8779C0 29.2492 0 25.4995 0 18Z" fill="#1F1E25"/>
<path d="M23.208 12.96V24H22.088V15.184L18.152 24H17.336L13.4 15.216V24H12.28V12.96H13.464L17.736 22.528L22.008 12.96H23.208ZM29.5728 24.128C28.7514 24.128 28.0101 23.9467 27.3488 23.584C26.6981 23.2107 26.1808 22.688 25.7968 22.016C25.4234 21.3333 25.2368 20.5387 25.2368 19.632C25.2368 18.7253 25.4288 17.936 25.8128 17.264C26.1968 16.5813 26.7194 16.0587 27.3808 15.696C28.0421 15.3227 28.7834 15.136 29.6048 15.136C30.4261 15.136 31.1674 15.3227 31.8288 15.696C32.5008 16.0587 33.0234 16.5813 33.3968 17.264C33.7808 17.936 33.9728 18.7253 33.9728 19.632C33.9728 20.528 33.7808 21.3173 33.3968 22C33.0128 22.6827 32.4848 23.2107 31.8128 23.584C31.1408 23.9467 30.3941 24.128 29.5728 24.128ZM29.5728 23.152C30.1488 23.152 30.6821 23.024 31.1728 22.768C31.6634 22.5013 32.0581 22.1067 32.3568 21.584C32.6661 21.0507 32.8208 20.4 32.8208 19.632C32.8208 18.864 32.6714 18.2187 32.3728 17.696C32.0741 17.1627 31.6794 16.768 31.1888 16.512C30.6981 16.2453 30.1648 16.112 29.5888 16.112C29.0128 16.112 28.4794 16.2453 27.9888 16.512C27.4981 16.768 27.1034 17.1627 26.8048 17.696C26.5168 18.2187 26.3728 18.864 26.3728 19.632C26.3728 20.4 26.5168 21.0507 26.8048 21.584C27.1034 22.1067 27.4928 22.5013 27.9728 22.768C28.4634 23.024 28.9968 23.152 29.5728 23.152ZM43.5824 15.264V24H42.4624V22.464C42.2064 23.008 41.8117 23.424 41.2784 23.712C40.745 24 40.1477 24.144 39.4864 24.144C38.441 24.144 37.5877 23.824 36.9264 23.184C36.265 22.5333 35.9344 21.5947 35.9344 20.368V15.264H37.0384V20.24C37.0384 21.1893 37.273 21.9147 37.7424 22.416C38.2224 22.9173 38.873 23.168 39.6944 23.168C40.537 23.168 41.209 22.9013 41.7104 22.368C42.2117 21.8347 42.4624 21.0507 42.4624 20.016V15.264H43.5824ZM50.2354 15.104C51.2807 15.104 52.134 15.4293 52.7954 16.08C53.4567 16.72 53.7874 17.6533 53.7874 18.88V24H52.6834V19.008C52.6834 18.0587 52.4434 17.3333 51.9634 16.832C51.494 16.3307 50.8487 16.08 50.0274 16.08C49.1847 16.08 48.5127 16.3467 48.0114 16.88C47.51 17.4133 47.2594 18.1973 47.2594 19.232V24H46.1394V15.264H47.2594V16.752C47.5367 16.2187 47.9367 15.8133 48.4594 15.536C48.982 15.248 49.574 15.104 50.2354 15.104ZM57.7204 16.208V21.632C57.7204 22.1653 57.8217 22.5333 58.0244 22.736C58.227 22.9387 58.5844 23.04 59.0964 23.04H60.1204V24H58.9204C58.131 24 57.5444 23.8187 57.1604 23.456C56.7764 23.0827 56.5844 22.4747 56.5844 21.632V16.208H55.3684V15.264H56.5844V13.072H57.7204V15.264H60.1204V16.208H57.7204ZM61.4555 19.616C61.4555 18.72 61.6315 17.936 61.9835 17.264C62.3462 16.5813 62.8422 16.0587 63.4715 15.696C64.1115 15.3227 64.8315 15.136 65.6315 15.136C66.4635 15.136 67.1782 15.328 67.7755 15.712C68.3835 16.096 68.8208 16.5867 69.0875 17.184V15.264H70.2075V24H69.0875V22.064C68.8102 22.6613 68.3675 23.1573 67.7595 23.552C67.1622 23.936 66.4475 24.128 65.6155 24.128C64.8262 24.128 64.1115 23.9413 63.4715 23.568C62.8422 23.1947 62.3462 22.6667 61.9835 21.984C61.6315 21.3013 61.4555 20.512 61.4555 19.616ZM69.0875 19.632C69.0875 18.928 68.9435 18.3093 68.6555 17.776C68.3675 17.2427 67.9728 16.832 67.4715 16.544C66.9808 16.256 66.4368 16.112 65.8395 16.112C65.2208 16.112 64.6662 16.2507 64.1755 16.528C63.6848 16.8053 63.2955 17.2107 63.0075 17.744C62.7302 18.2667 62.5915 18.8907 62.5915 19.616C62.5915 20.3307 62.7302 20.96 63.0075 21.504C63.2955 22.0373 63.6848 22.448 64.1755 22.736C64.6662 23.0133 65.2208 23.152 65.8395 23.152C66.4368 23.152 66.9808 23.008 67.4715 22.72C67.9728 22.432 68.3675 22.0213 68.6555 21.488C68.9435 20.9547 69.0875 20.336 69.0875 19.632ZM73.3244 13.616C73.1004 13.616 72.9084 13.536 72.7484 13.376C72.5884 13.216 72.5084 13.0187 72.5084 12.784C72.5084 12.5493 72.5884 12.3573 72.7484 12.208C72.9084 12.048 73.1004 11.968 73.3244 11.968C73.5484 11.968 73.7404 12.048 73.9004 12.208C74.0604 12.3573 74.1404 12.5493 74.1404 12.784C74.1404 13.0187 74.0604 13.216 73.9004 13.376C73.7404 13.536 73.5484 13.616 73.3244 13.616ZM73.8844 15.264V24H72.7644V15.264H73.8844ZM80.5166 15.104C81.562 15.104 82.4153 15.4293 83.0766 16.08C83.738 16.72 84.0686 17.6533 84.0686 18.88V24H82.9646V19.008C82.9646 18.0587 82.7246 17.3333 82.2446 16.832C81.7753 16.3307 81.13 16.08 80.3086 16.08C79.466 16.08 78.794 16.3467 78.2926 16.88C77.7913 17.4133 77.5406 18.1973 77.5406 19.232V24H76.4206V15.264H77.5406V16.752C77.818 16.2187 78.218 15.8133 78.7406 15.536C79.2633 15.248 79.8553 15.104 80.5166 15.104ZM96.1683 18.224C96.7976 18.3413 97.3309 18.6613 97.7683 19.184C98.2056 19.7067 98.4243 20.3147 98.4243 21.008C98.4243 21.5733 98.2803 22.0853 97.9923 22.544C97.7149 22.992 97.3043 23.3493 96.7603 23.616C96.2163 23.872 95.5656 24 94.8083 24H90.9363V12.816H94.6963C95.8269 12.816 96.6856 13.0773 97.2723 13.6C97.8696 14.1227 98.1683 14.8 98.1683 15.632C98.1683 16.3253 97.9816 16.8907 97.6083 17.328C97.2349 17.7547 96.7549 18.0533 96.1683 18.224ZM92.0563 17.76H94.6643C95.4216 17.76 96.0029 17.584 96.4083 17.232C96.8243 16.8693 97.0323 16.3733 97.0323 15.744C97.0323 15.1253 96.8243 14.64 96.4083 14.288C96.0029 13.936 95.4056 13.76 94.6163 13.76H92.0563V17.76ZM94.7283 23.056C95.5389 23.056 96.1683 22.864 96.6163 22.48C97.0749 22.096 97.3043 21.568 97.3043 20.896C97.3043 20.224 97.0643 19.6907 96.5843 19.296C96.1149 18.8907 95.4803 18.688 94.6803 18.688H92.0563V23.056H94.7283ZM101.043 13.616C100.819 13.616 100.627 13.536 100.467 13.376C100.307 13.216 100.227 13.0187 100.227 12.784C100.227 12.5493 100.307 12.3573 100.467 12.208C100.627 12.048 100.819 11.968 101.043 11.968C101.267 11.968 101.459 12.048 101.619 12.208C101.779 12.3573 101.859 12.5493 101.859 12.784C101.859 13.0187 101.779 13.216 101.619 13.376C101.459 13.536 101.267 13.616 101.043 13.616ZM101.603 15.264V24H100.483V15.264H101.603ZM108.859 24L105.259 20.08V24H104.139V12.16H105.259V19.168L108.779 15.264H110.347L106.203 19.616L110.379 24H108.859ZM112.387 13.616C112.163 13.616 111.971 13.536 111.811 13.376C111.651 13.216 111.571 13.0187 111.571 12.784C111.571 12.5493 111.651 12.3573 111.811 12.208C111.971 12.048 112.163 11.968 112.387 11.968C112.611 11.968 112.803 12.048 112.963 12.208C113.123 12.3573 113.203 12.5493 113.203 12.784C113.203 13.0187 113.123 13.216 112.963 13.376C112.803 13.536 112.611 13.616 112.387 13.616ZM112.947 15.264V24H111.827V15.264H112.947ZM119.579 15.104C120.624 15.104 121.478 15.4293 122.139 16.08C122.8 16.72 123.131 17.6533 123.131 18.88V24H122.027V19.008C122.027 18.0587 121.787 17.3333 121.307 16.832C120.838 16.3307 120.192 16.08 119.371 16.08C118.528 16.08 117.856 16.3467 117.355 16.88C116.854 17.4133 116.603 18.1973 116.603 19.232V24H115.483V15.264H116.603V16.752C116.88 16.2187 117.28 15.8133 117.803 15.536C118.326 15.248 118.918 15.104 119.579 15.104ZM129.272 15.136C130.093 15.136 130.808 15.328 131.416 15.712C132.024 16.096 132.461 16.5813 132.728 17.168V15.264H133.848V24.224C133.848 25.024 133.672 25.7333 133.32 26.352C132.979 26.9707 132.499 27.4453 131.88 27.776C131.261 28.1173 130.557 28.288 129.768 28.288C128.648 28.288 127.715 28.0213 126.968 27.488C126.232 26.9547 125.773 26.2293 125.592 25.312H126.696C126.888 25.92 127.251 26.4053 127.784 26.768C128.328 27.1307 128.989 27.312 129.768 27.312C130.333 27.312 130.84 27.1893 131.288 26.944C131.736 26.7093 132.088 26.3573 132.344 25.888C132.6 25.4187 132.728 24.864 132.728 24.224V22.064C132.451 22.6613 132.008 23.1573 131.4 23.552C130.803 23.936 130.093 24.128 129.272 24.128C128.472 24.128 127.752 23.9413 127.112 23.568C126.483 23.1947 125.987 22.6667 125.624 21.984C125.272 21.3013 125.096 20.512 125.096 19.616C125.096 18.72 125.272 17.936 125.624 17.264C125.987 16.5813 126.483 16.0587 127.112 15.696C127.752 15.3227 128.472 15.136 129.272 15.136ZM132.728 19.632C132.728 18.928 132.584 18.3093 132.296 17.776C132.008 17.2427 131.613 16.832 131.112 16.544C130.621 16.256 130.077 16.112 129.48 16.112C128.861 16.112 128.307 16.2507 127.816 16.528C127.325 16.8053 126.936 17.2107 126.648 17.744C126.371 18.2667 126.232 18.8907 126.232 19.616C126.232 20.3307 126.371 20.96 126.648 21.504C126.936 22.0373 127.325 22.448 127.816 22.736C128.307 23.0133 128.861 23.152 129.48 23.152C130.077 23.152 130.621 23.008 131.112 22.72C131.613 22.432 132.008 22.0213 132.296 21.488C132.584 20.9547 132.728 20.336 132.728 19.632Z" fill="#CFC9F0"/>
</svg>
