<svg width="120" height="36" viewBox="0 0 120 36" fill="none" xmlns="http://www.w3.org/2000/svg">
<path d="M0 18C0 10.5005 0 6.7508 1.90983 4.12215C2.52663 3.2732 3.2732 2.52663 4.12215 1.90983C6.7508 0 10.5005 0 18 0H102C109.499 0 113.249 0 115.878 1.90983C116.727 2.52663 117.473 3.2732 118.09 4.12215C120 6.7508 120 10.5005 120 18C120 25.4995 120 29.2492 118.09 31.8779C117.473 32.7268 116.727 33.4734 115.878 34.0902C113.249 36 109.499 36 102 36H18C10.5005 36 6.7508 36 4.12215 34.0902C3.2732 33.4734 2.52663 32.7268 1.90983 31.8779C0 29.2492 0 25.4995 0 18Z" fill="#1F1E25"/>
<path d="M27.848 12.816L24.68 24H23.432L20.616 14.464L17.736 24L16.52 24.016L13.416 12.816H14.616L17.176 22.624L20.04 12.816H21.288L24.072 22.624L26.648 12.816H27.848ZM37.4653 19.184C37.4653 19.568 37.4546 19.8613 37.4333 20.064H30.1853C30.2173 20.7253 30.3773 21.2907 30.6653 21.76C30.9533 22.2293 31.3319 22.5867 31.8013 22.832C32.2706 23.0667 32.7826 23.184 33.3373 23.184C34.0626 23.184 34.6706 23.008 35.1613 22.656C35.6626 22.304 35.9933 21.8293 36.1533 21.232H37.3373C37.1239 22.0853 36.6653 22.784 35.9613 23.328C35.2679 23.8613 34.3933 24.128 33.3373 24.128C32.5159 24.128 31.7799 23.9467 31.1293 23.584C30.4786 23.2107 29.9666 22.688 29.5933 22.016C29.2306 21.3333 29.0493 20.5387 29.0493 19.632C29.0493 18.7253 29.2306 17.9307 29.5933 17.248C29.9559 16.5653 30.4626 16.0427 31.1133 15.68C31.7639 15.3173 32.5053 15.136 33.3373 15.136C34.1693 15.136 34.8946 15.3173 35.5133 15.68C36.1426 16.0427 36.6226 16.5333 36.9533 17.152C37.2946 17.76 37.4653 18.4373 37.4653 19.184ZM36.3293 19.152C36.3399 18.5013 36.2066 17.9467 35.9293 17.488C35.6626 17.0293 35.2946 16.6827 34.8253 16.448C34.3559 16.2133 33.8439 16.096 33.2893 16.096C32.4573 16.096 31.7479 16.3627 31.1613 16.896C30.5746 17.4293 30.2493 18.1813 30.1853 19.152H36.3293ZM40.6184 17.2C40.9064 16.592 41.349 16.096 41.9464 15.712C42.5544 15.328 43.269 15.136 44.0904 15.136C44.8904 15.136 45.605 15.3227 46.2344 15.696C46.8637 16.0587 47.3544 16.5813 47.7064 17.264C48.069 17.936 48.2504 18.72 48.2504 19.616C48.2504 20.512 48.069 21.3013 47.7064 21.984C47.3544 22.6667 46.8584 23.1947 46.2184 23.568C45.589 23.9413 44.8797 24.128 44.0904 24.128C43.2584 24.128 42.5384 23.9413 41.9304 23.568C41.333 23.184 40.8957 22.688 40.6184 22.08V24H39.5144V12.16H40.6184V17.2ZM47.1144 19.616C47.1144 18.8907 46.9704 18.2667 46.6824 17.744C46.405 17.2107 46.021 16.8053 45.5304 16.528C45.0397 16.2507 44.485 16.112 43.8664 16.112C43.269 16.112 42.7197 16.256 42.2184 16.544C41.7277 16.832 41.3384 17.2427 41.0504 17.776C40.7624 18.3093 40.6184 18.928 40.6184 19.632C40.6184 20.336 40.7624 20.9547 41.0504 21.488C41.3384 22.0213 41.7277 22.432 42.2184 22.72C42.7197 23.008 43.269 23.152 43.8664 23.152C44.485 23.152 45.0397 23.0133 45.5304 22.736C46.021 22.448 46.405 22.0373 46.6824 21.504C46.9704 20.96 47.1144 20.3307 47.1144 19.616ZM58.0139 12.816C59.2512 12.816 60.3125 13.04 61.1979 13.488C62.0832 13.936 62.7605 14.5813 63.2299 15.424C63.6992 16.2667 63.9339 17.2693 63.9339 18.432C63.9339 19.584 63.6992 20.5813 63.2299 21.424C62.7605 22.256 62.0832 22.896 61.1979 23.344C60.3125 23.7813 59.2512 24 58.0139 24H54.7019V12.816H58.0139ZM58.0139 23.072C59.5712 23.072 60.7552 22.6667 61.5659 21.856C62.3872 21.0347 62.7979 19.8933 62.7979 18.432C62.7979 16.96 62.3872 15.8133 61.5659 14.992C60.7552 14.16 59.5712 13.744 58.0139 13.744H55.8219V23.072H58.0139ZM73.9028 19.184C73.9028 19.568 73.8921 19.8613 73.8708 20.064H66.6228C66.6548 20.7253 66.8148 21.2907 67.1028 21.76C67.3908 22.2293 67.7694 22.5867 68.2388 22.832C68.7081 23.0667 69.2201 23.184 69.7748 23.184C70.5001 23.184 71.1081 23.008 71.5988 22.656C72.1001 22.304 72.4308 21.8293 72.5908 21.232H73.7748C73.5614 22.0853 73.1028 22.784 72.3988 23.328C71.7054 23.8613 70.8308 24.128 69.7748 24.128C68.9534 24.128 68.2174 23.9467 67.5668 23.584C66.9161 23.2107 66.4041 22.688 66.0308 22.016C65.6681 21.3333 65.4868 20.5387 65.4868 19.632C65.4868 18.7253 65.6681 17.9307 66.0308 17.248C66.3934 16.5653 66.9001 16.0427 67.5508 15.68C68.2014 15.3173 68.9428 15.136 69.7748 15.136C70.6068 15.136 71.3321 15.3173 71.9508 15.68C72.5801 16.0427 73.0601 16.5333 73.3908 17.152C73.7321 17.76 73.9028 18.4373 73.9028 19.184ZM72.7668 19.152C72.7774 18.5013 72.6441 17.9467 72.3668 17.488C72.1001 17.0293 71.7321 16.6827 71.2628 16.448C70.7934 16.2133 70.2814 16.096 69.7268 16.096C68.8948 16.096 68.1854 16.3627 67.5988 16.896C67.0121 17.4293 66.6868 18.1813 66.6228 19.152H72.7668ZM78.9599 24.128C77.9572 24.128 77.1359 23.8987 76.4959 23.44C75.8665 22.9707 75.5145 22.336 75.4399 21.536H76.5919C76.6452 22.0267 76.8745 22.4267 77.2799 22.736C77.6959 23.0347 78.2505 23.184 78.9439 23.184C79.5519 23.184 80.0265 23.04 80.3679 22.752C80.7199 22.464 80.8959 22.1067 80.8959 21.68C80.8959 21.3813 80.7999 21.136 80.6079 20.944C80.4159 20.752 80.1705 20.6027 79.8719 20.496C79.5839 20.3787 79.1892 20.256 78.6879 20.128C78.0372 19.9573 77.5092 19.7867 77.1039 19.616C76.6985 19.4453 76.3519 19.1947 76.0639 18.864C75.7865 18.5227 75.6479 18.0693 75.6479 17.504C75.6479 17.0773 75.7759 16.6827 76.0319 16.32C76.2879 15.9573 76.6505 15.6693 77.1199 15.456C77.5892 15.2427 78.1225 15.136 78.7199 15.136C79.6585 15.136 80.4159 15.376 80.9919 15.856C81.5679 16.3253 81.8772 16.976 81.9199 17.808H80.7999C80.7679 17.296 80.5652 16.8853 80.1919 16.576C79.8292 16.256 79.3279 16.096 78.6879 16.096C78.1225 16.096 77.6639 16.2293 77.3119 16.496C76.9599 16.7627 76.7839 17.0933 76.7839 17.488C76.7839 17.8293 76.8852 18.112 77.0879 18.336C77.3012 18.5493 77.5625 18.72 77.8719 18.848C78.1812 18.9653 78.5972 19.0987 79.1199 19.248C79.7492 19.4187 80.2505 19.584 80.6239 19.744C80.9972 19.904 81.3172 20.1387 81.5839 20.448C81.8505 20.7573 81.9892 21.168 81.9999 21.68C81.9999 22.1493 81.8719 22.5707 81.6159 22.944C81.3599 23.3067 81.0025 23.5947 80.5439 23.808C80.0852 24.0213 79.5572 24.128 78.9599 24.128ZM84.6681 13.616C84.4441 13.616 84.2521 13.536 84.0921 13.376C83.9321 13.216 83.8521 13.0187 83.8521 12.784C83.8521 12.5493 83.9321 12.3573 84.0921 12.208C84.2521 12.048 84.4441 11.968 84.6681 11.968C84.8921 11.968 85.0841 12.048 85.2441 12.208C85.4041 12.3573 85.4841 12.5493 85.4841 12.784C85.4841 13.0187 85.4041 13.216 85.2441 13.376C85.0841 13.536 84.8921 13.616 84.6681 13.616ZM85.2281 15.264V24H84.1081V15.264H85.2281ZM91.4284 15.136C92.2497 15.136 92.9644 15.328 93.5724 15.712C94.1804 16.096 94.6177 16.5813 94.8844 17.168V15.264H96.0044V24.224C96.0044 25.024 95.8284 25.7333 95.4764 26.352C95.135 26.9707 94.655 27.4453 94.0364 27.776C93.4177 28.1173 92.7137 28.288 91.9244 28.288C90.8044 28.288 89.871 28.0213 89.1244 27.488C88.3884 26.9547 87.9297 26.2293 87.7484 25.312H88.8524C89.0444 25.92 89.407 26.4053 89.9404 26.768C90.4844 27.1307 91.1457 27.312 91.9244 27.312C92.4897 27.312 92.9964 27.1893 93.4444 26.944C93.8924 26.7093 94.2444 26.3573 94.5004 25.888C94.7564 25.4187 94.8844 24.864 94.8844 24.224V22.064C94.607 22.6613 94.1644 23.1573 93.5564 23.552C92.959 23.936 92.2497 24.128 91.4284 24.128C90.6284 24.128 89.9084 23.9413 89.2684 23.568C88.639 23.1947 88.143 22.6667 87.7804 21.984C87.4284 21.3013 87.2524 20.512 87.2524 19.616C87.2524 18.72 87.4284 17.936 87.7804 17.264C88.143 16.5813 88.639 16.0587 89.2684 15.696C89.9084 15.3227 90.6284 15.136 91.4284 15.136ZM94.8844 19.632C94.8844 18.928 94.7404 18.3093 94.4524 17.776C94.1644 17.2427 93.7697 16.832 93.2684 16.544C92.7777 16.256 92.2337 16.112 91.6364 16.112C91.0177 16.112 90.463 16.2507 89.9724 16.528C89.4817 16.8053 89.0924 17.2107 88.8044 17.744C88.527 18.2667 88.3884 18.8907 88.3884 19.616C88.3884 20.3307 88.527 20.96 88.8044 21.504C89.0924 22.0373 89.4817 22.448 89.9724 22.736C90.463 23.0133 91.0177 23.152 91.6364 23.152C92.2337 23.152 92.7777 23.008 93.2684 22.72C93.7697 22.432 94.1644 22.0213 94.4524 21.488C94.7404 20.9547 94.8844 20.336 94.8844 19.632ZM102.657 15.104C103.703 15.104 104.556 15.4293 105.217 16.08C105.879 16.72 106.209 17.6533 106.209 18.88V24H105.105V19.008C105.105 18.0587 104.865 17.3333 104.385 16.832C103.916 16.3307 103.271 16.08 102.449 16.08C101.607 16.08 100.935 16.3467 100.433 16.88C99.9319 17.4133 99.6813 18.1973 99.6813 19.232V24H98.5613V15.264H99.6813V16.752C99.9586 16.2187 100.359 15.8133 100.881 15.536C101.404 15.248 101.996 15.104 102.657 15.104Z" fill="#CFC9F0"/>
</svg>
