<svg width="100" height="36" viewBox="0 0 100 36" fill="none" xmlns="http://www.w3.org/2000/svg">
<path d="M0 18C0 10.5005 0 6.7508 1.90983 4.12215C2.52663 3.2732 3.2732 2.52663 4.12215 1.90983C6.7508 0 10.5005 0 18 0H82C89.4995 0 93.2492 0 95.8779 1.90983C96.7268 2.52663 97.4734 3.2732 98.0902 4.12215C100 6.7508 100 10.5005 100 18C100 25.4995 100 29.2492 98.0902 31.8779C97.4734 32.7268 96.7268 33.4734 95.8779 34.0902C93.2492 36 89.4995 36 82 36H18C10.5005 36 6.7508 36 4.12215 34.0902C3.2732 33.4734 2.52663 32.7268 1.90983 31.8779C0 29.2492 0 25.4995 0 18Z" fill="#1F1E25"/>
<path d="M24.08 16.08C23.76 15.344 23.2693 14.768 22.608 14.352C21.9573 13.9253 21.1893 13.712 20.304 13.712C19.472 13.712 18.7253 13.904 18.064 14.288C17.4027 14.672 16.88 15.2213 16.496 15.936C16.112 16.64 15.92 17.4613 15.92 18.4C15.92 19.3387 16.112 20.1653 16.496 20.88C16.88 21.5947 17.4027 22.144 18.064 22.528C18.7253 22.912 19.472 23.104 20.304 23.104C21.0827 23.104 21.7813 22.9387 22.4 22.608C23.0293 22.2667 23.5307 21.7867 23.904 21.168C24.288 20.5387 24.5067 19.808 24.56 18.976H19.856V18.064H25.744V18.88C25.6907 19.8613 25.424 20.752 24.944 21.552C24.464 22.3413 23.8187 22.9653 23.008 23.424C22.208 23.8827 21.3067 24.112 20.304 24.112C19.2693 24.112 18.3307 23.872 17.488 23.392C16.6453 22.9013 15.9787 22.224 15.488 21.36C15.008 20.4853 14.768 19.4987 14.768 18.4C14.768 17.3013 15.008 16.32 15.488 15.456C15.9787 14.5813 16.6453 13.904 17.488 13.424C18.3307 12.9333 19.2693 12.688 20.304 12.688C21.4987 12.688 22.544 12.9867 23.44 13.584C24.336 14.1813 24.9867 15.0133 25.392 16.08H24.08ZM28.9156 16.816C29.161 16.272 29.5343 15.8507 30.0356 15.552C30.5476 15.2533 31.1716 15.104 31.9076 15.104V16.272H31.6036C30.793 16.272 30.1423 16.4907 29.6516 16.928C29.161 17.3653 28.9156 18.096 28.9156 19.12V24H27.7956V15.264H28.9156V16.816ZM33.0805 19.616C33.0805 18.72 33.2565 17.936 33.6085 17.264C33.9712 16.5813 34.4672 16.0587 35.0965 15.696C35.7365 15.3227 36.4565 15.136 37.2565 15.136C38.0885 15.136 38.8032 15.328 39.4005 15.712C40.0085 16.096 40.4458 16.5867 40.7125 17.184V15.264H41.8325V24H40.7125V22.064C40.4352 22.6613 39.9925 23.1573 39.3845 23.552C38.7872 23.936 38.0725 24.128 37.2405 24.128C36.4512 24.128 35.7365 23.9413 35.0965 23.568C34.4672 23.1947 33.9712 22.6667 33.6085 21.984C33.2565 21.3013 33.0805 20.512 33.0805 19.616ZM40.7125 19.632C40.7125 18.928 40.5685 18.3093 40.2805 17.776C39.9925 17.2427 39.5978 16.832 39.0965 16.544C38.6058 16.256 38.0618 16.112 37.4645 16.112C36.8458 16.112 36.2912 16.2507 35.8005 16.528C35.3098 16.8053 34.9205 17.2107 34.6325 17.744C34.3552 18.2667 34.2165 18.8907 34.2165 19.616C34.2165 20.3307 34.3552 20.96 34.6325 21.504C34.9205 22.0373 35.3098 22.448 35.8005 22.736C36.2912 23.0133 36.8458 23.152 37.4645 23.152C38.0618 23.152 38.6058 23.008 39.0965 22.72C39.5978 22.432 39.9925 22.0213 40.2805 21.488C40.5685 20.9547 40.7125 20.336 40.7125 19.632ZM45.4934 17.184C45.7707 16.5973 46.208 16.112 46.8054 15.728C47.4134 15.3333 48.1334 15.136 48.9654 15.136C49.7547 15.136 50.464 15.3227 51.0934 15.696C51.7334 16.0587 52.2294 16.5813 52.5814 17.264C52.944 17.936 53.1254 18.72 53.1254 19.616C53.1254 20.512 52.944 21.3013 52.5814 21.984C52.2294 22.6667 51.7334 23.1947 51.0934 23.568C50.464 23.9413 49.7547 24.128 48.9654 24.128C48.144 24.128 47.4294 23.936 46.8214 23.552C46.2134 23.1573 45.7707 22.6667 45.4934 22.08V28.128H44.3894V15.264H45.4934V17.184ZM51.9894 19.616C51.9894 18.8907 51.8454 18.2667 51.5574 17.744C51.28 17.2107 50.896 16.8053 50.4054 16.528C49.9147 16.2507 49.36 16.112 48.7414 16.112C48.144 16.112 47.5947 16.256 47.0934 16.544C46.6027 16.832 46.2134 17.2427 45.9254 17.776C45.6374 18.3093 45.4934 18.928 45.4934 19.632C45.4934 20.336 45.6374 20.9547 45.9254 21.488C46.2134 22.0213 46.6027 22.432 47.0934 22.72C47.5947 23.008 48.144 23.152 48.7414 23.152C49.36 23.152 49.9147 23.0133 50.4054 22.736C50.896 22.448 51.28 22.0373 51.5574 21.504C51.8454 20.96 51.9894 20.3307 51.9894 19.616ZM59.3463 15.104C60.0076 15.104 60.5996 15.2427 61.1223 15.52C61.6556 15.7973 62.0716 16.224 62.3703 16.8C62.6796 17.3653 62.8343 18.0587 62.8343 18.88V24H61.7303V19.008C61.7303 18.0587 61.4903 17.3333 61.0103 16.832C60.5409 16.3307 59.8956 16.08 59.0743 16.08C58.2316 16.08 57.5596 16.3467 57.0583 16.88C56.5569 17.4133 56.3063 18.1973 56.3063 19.232V24H55.1863V12.16H56.3063V16.752C56.5836 16.2293 56.9889 15.824 57.5223 15.536C58.0663 15.248 58.6743 15.104 59.3463 15.104ZM65.8713 13.616C65.6473 13.616 65.4553 13.536 65.2953 13.376C65.1353 13.216 65.0553 13.0187 65.0553 12.784C65.0553 12.5493 65.1353 12.3573 65.2953 12.208C65.4553 12.048 65.6473 11.968 65.8713 11.968C66.0953 11.968 66.2873 12.048 66.4473 12.208C66.6073 12.3573 66.6873 12.5493 66.6873 12.784C66.6873 13.0187 66.6073 13.216 66.4473 13.376C66.2873 13.536 66.0953 13.616 65.8713 13.616ZM66.4313 15.264V24H65.3113V15.264H66.4313ZM68.4555 19.632C68.4555 18.7253 68.6368 17.936 68.9995 17.264C69.3622 16.5813 69.8635 16.0587 70.5035 15.696C71.1435 15.3227 71.8742 15.136 72.6955 15.136C73.7728 15.136 74.6582 15.4027 75.3515 15.936C76.0555 16.4693 76.5088 17.1947 76.7115 18.112H75.5115C75.3622 17.4827 75.0368 16.992 74.5355 16.64C74.0448 16.2773 73.4315 16.096 72.6955 16.096C72.1088 16.096 71.5808 16.2293 71.1115 16.496C70.6422 16.7627 70.2688 17.1627 69.9915 17.696C69.7248 18.2187 69.5915 18.864 69.5915 19.632C69.5915 20.4 69.7248 21.0507 69.9915 21.584C70.2688 22.1173 70.6422 22.5173 71.1115 22.784C71.5808 23.0507 72.1088 23.184 72.6955 23.184C73.4315 23.184 74.0448 23.008 74.5355 22.656C75.0368 22.2933 75.3622 21.792 75.5115 21.152H76.7115C76.5088 22.048 76.0555 22.768 75.3515 23.312C74.6475 23.856 73.7622 24.128 72.6955 24.128C71.8742 24.128 71.1435 23.9467 70.5035 23.584C69.8635 23.2107 69.3622 22.688 68.9995 22.016C68.6368 21.3333 68.4555 20.5387 68.4555 19.632ZM81.788 24.128C80.7853 24.128 79.964 23.8987 79.324 23.44C78.6947 22.9707 78.3427 22.336 78.268 21.536H79.42C79.4733 22.0267 79.7027 22.4267 80.108 22.736C80.524 23.0347 81.0787 23.184 81.772 23.184C82.38 23.184 82.8547 23.04 83.196 22.752C83.548 22.464 83.724 22.1067 83.724 21.68C83.724 21.3813 83.628 21.136 83.436 20.944C83.244 20.752 82.9987 20.6027 82.7 20.496C82.412 20.3787 82.0173 20.256 81.516 20.128C80.8653 19.9573 80.3373 19.7867 79.932 19.616C79.5267 19.4453 79.18 19.1947 78.892 18.864C78.6147 18.5227 78.476 18.0693 78.476 17.504C78.476 17.0773 78.604 16.6827 78.86 16.32C79.116 15.9573 79.4787 15.6693 79.948 15.456C80.4173 15.2427 80.9507 15.136 81.548 15.136C82.4867 15.136 83.244 15.376 83.82 15.856C84.396 16.3253 84.7053 16.976 84.748 17.808H83.628C83.596 17.296 83.3933 16.8853 83.02 16.576C82.6573 16.256 82.156 16.096 81.516 16.096C80.9507 16.096 80.492 16.2293 80.14 16.496C79.788 16.7627 79.612 17.0933 79.612 17.488C79.612 17.8293 79.7133 18.112 79.916 18.336C80.1293 18.5493 80.3907 18.72 80.7 18.848C81.0093 18.9653 81.4253 19.0987 81.948 19.248C82.5773 19.4187 83.0787 19.584 83.452 19.744C83.8253 19.904 84.1453 20.1387 84.412 20.448C84.6787 20.7573 84.8173 21.168 84.828 21.68C84.828 22.1493 84.7 22.5707 84.444 22.944C84.188 23.3067 83.8307 23.5947 83.372 23.808C82.9133 24.0213 82.3853 24.128 81.788 24.128Z" fill="#CFC9F0"/>
</svg>
