<svg width="80" height="36" viewBox="0 0 80 36" fill="none" xmlns="http://www.w3.org/2000/svg">
<path d="M0 18C0 10.5005 0 6.7508 1.90983 4.12215C2.52663 3.2732 3.2732 2.52663 4.12215 1.90983C6.7508 0 10.5005 0 18 0H62C69.4995 0 73.2492 0 75.8779 1.90983C76.7268 2.52663 77.4734 3.2732 78.0902 4.12215C80 6.7508 80 10.5005 80 18C80 25.4995 80 29.2492 78.0902 31.8779C77.4734 32.7268 76.7268 33.4734 75.8779 34.0902C73.2492 36 69.4995 36 62 36H18C10.5005 36 6.7508 36 4.12215 34.0902C3.2732 33.4734 2.52663 32.7268 1.90983 31.8779C0 29.2492 0 25.4995 0 18Z" fill="#1F1E25"/>
<path d="M25.208 12.96V24H24.088V15.184L20.152 24H19.336L15.4 15.216V24H14.28V12.96H15.464L19.736 22.528L24.008 12.96H25.208ZM31.5728 24.128C30.7514 24.128 30.0101 23.9467 29.3488 23.584C28.6981 23.2107 28.1808 22.688 27.7968 22.016C27.4234 21.3333 27.2368 20.5387 27.2368 19.632C27.2368 18.7253 27.4288 17.936 27.8128 17.264C28.1968 16.5813 28.7194 16.0587 29.3808 15.696C30.0421 15.3227 30.7834 15.136 31.6048 15.136C32.4261 15.136 33.1674 15.3227 33.8288 15.696C34.5008 16.0587 35.0234 16.5813 35.3968 17.264C35.7808 17.936 35.9728 18.7253 35.9728 19.632C35.9728 20.528 35.7808 21.3173 35.3968 22C35.0128 22.6827 34.4848 23.2107 33.8128 23.584C33.1408 23.9467 32.3941 24.128 31.5728 24.128ZM31.5728 23.152C32.1488 23.152 32.6821 23.024 33.1728 22.768C33.6634 22.5013 34.0581 22.1067 34.3568 21.584C34.6661 21.0507 34.8208 20.4 34.8208 19.632C34.8208 18.864 34.6714 18.2187 34.3728 17.696C34.0741 17.1627 33.6794 16.768 33.1888 16.512C32.6981 16.2453 32.1648 16.112 31.5888 16.112C31.0128 16.112 30.4794 16.2453 29.9888 16.512C29.4981 16.768 29.1034 17.1627 28.8048 17.696C28.5168 18.2187 28.3728 18.864 28.3728 19.632C28.3728 20.4 28.5168 21.0507 28.8048 21.584C29.1034 22.1067 29.4928 22.5013 29.9728 22.768C30.4634 23.024 30.9968 23.152 31.5728 23.152ZM41.1184 22.912L44.0624 15.264H45.2464L41.7424 24H40.4784L36.9744 15.264H38.1744L41.1184 22.912ZM47.3244 13.616C47.1004 13.616 46.9084 13.536 46.7484 13.376C46.5884 13.216 46.5084 13.0187 46.5084 12.784C46.5084 12.5493 46.5884 12.3573 46.7484 12.208C46.9084 12.048 47.1004 11.968 47.3244 11.968C47.5484 11.968 47.7404 12.048 47.9004 12.208C48.0604 12.3573 48.1404 12.5493 48.1404 12.784C48.1404 13.0187 48.0604 13.216 47.9004 13.376C47.7404 13.536 47.5484 13.616 47.3244 13.616ZM47.8844 15.264V24H46.7644V15.264H47.8844ZM58.3246 19.184C58.3246 19.568 58.314 19.8613 58.2926 20.064H51.0446C51.0766 20.7253 51.2366 21.2907 51.5246 21.76C51.8126 22.2293 52.1913 22.5867 52.6606 22.832C53.13 23.0667 53.642 23.184 54.1966 23.184C54.922 23.184 55.53 23.008 56.0206 22.656C56.522 22.304 56.8526 21.8293 57.0126 21.232H58.1966C57.9833 22.0853 57.5246 22.784 56.8206 23.328C56.1273 23.8613 55.2526 24.128 54.1966 24.128C53.3753 24.128 52.6393 23.9467 51.9886 23.584C51.338 23.2107 50.826 22.688 50.4526 22.016C50.09 21.3333 49.9086 20.5387 49.9086 19.632C49.9086 18.7253 50.09 17.9307 50.4526 17.248C50.8153 16.5653 51.322 16.0427 51.9726 15.68C52.6233 15.3173 53.3646 15.136 54.1966 15.136C55.0286 15.136 55.754 15.3173 56.3726 15.68C57.002 16.0427 57.482 16.5333 57.8126 17.152C58.154 17.76 58.3246 18.4373 58.3246 19.184ZM57.1886 19.152C57.1993 18.5013 57.066 17.9467 56.7886 17.488C56.522 17.0293 56.154 16.6827 55.6846 16.448C55.2153 16.2133 54.7033 16.096 54.1486 16.096C53.3166 16.096 52.6073 16.3627 52.0206 16.896C51.434 17.4293 51.1086 18.1813 51.0446 19.152H57.1886ZM63.3818 24.128C62.3791 24.128 61.5578 23.8987 60.9178 23.44C60.2884 22.9707 59.9364 22.336 59.8618 21.536H61.0138C61.0671 22.0267 61.2964 22.4267 61.7018 22.736C62.1178 23.0347 62.6724 23.184 63.3658 23.184C63.9738 23.184 64.4484 23.04 64.7898 22.752C65.1418 22.464 65.3178 22.1067 65.3178 21.68C65.3178 21.3813 65.2218 21.136 65.0298 20.944C64.8378 20.752 64.5924 20.6027 64.2938 20.496C64.0058 20.3787 63.6111 20.256 63.1098 20.128C62.4591 19.9573 61.9311 19.7867 61.5258 19.616C61.1204 19.4453 60.7738 19.1947 60.4858 18.864C60.2084 18.5227 60.0698 18.0693 60.0698 17.504C60.0698 17.0773 60.1978 16.6827 60.4538 16.32C60.7098 15.9573 61.0724 15.6693 61.5418 15.456C62.0111 15.2427 62.5444 15.136 63.1418 15.136C64.0804 15.136 64.8378 15.376 65.4138 15.856C65.9898 16.3253 66.2991 16.976 66.3418 17.808H65.2218C65.1898 17.296 64.9871 16.8853 64.6138 16.576C64.2511 16.256 63.7498 16.096 63.1098 16.096C62.5444 16.096 62.0858 16.2293 61.7338 16.496C61.3818 16.7627 61.2057 17.0933 61.2057 17.488C61.2057 17.8293 61.3071 18.112 61.5098 18.336C61.7231 18.5493 61.9844 18.72 62.2938 18.848C62.6031 18.9653 63.0191 19.0987 63.5418 19.248C64.1711 19.4187 64.6724 19.584 65.0458 19.744C65.4191 19.904 65.7391 20.1387 66.0058 20.448C66.2724 20.7573 66.4111 21.168 66.4218 21.68C66.4218 22.1493 66.2938 22.5707 66.0378 22.944C65.7818 23.3067 65.4244 23.5947 64.9658 23.808C64.5071 24.0213 63.9791 24.128 63.3818 24.128Z" fill="#CFC9F0"/>
</svg>
