<svg width="80" height="36" viewBox="0 0 80 36" fill="none" xmlns="http://www.w3.org/2000/svg">
<path d="M0 18C0 10.5005 0 6.7508 1.90983 4.12215C2.52663 3.2732 3.2732 2.52663 4.12215 1.90983C6.7508 0 10.5005 0 18 0H62C69.4995 0 73.2492 0 75.8779 1.90983C76.7268 2.52663 77.4734 3.2732 78.0902 4.12215C80 6.7508 80 10.5005 80 18C80 25.4995 80 29.2492 78.0902 31.8779C77.4734 32.7268 76.7268 33.4734 75.8779 34.0902C73.2492 36 69.4995 36 62 36H18C10.5005 36 6.7508 36 4.12215 34.0902C3.2732 33.4734 2.52663 32.7268 1.90983 31.8779C0 29.2492 0 25.4995 0 18Z" fill="#1F1E25"/>
<path d="M29.208 12.96V24H28.088V15.184L24.152 24H23.336L19.4 15.216V24H18.28V12.96H19.464L23.736 22.528L28.008 12.96H29.208ZM39.3168 15.264V24H38.1968V22.464C37.9408 23.008 37.5461 23.424 37.0128 23.712C36.4794 24 35.8821 24.144 35.2208 24.144C34.1754 24.144 33.3221 23.824 32.6608 23.184C31.9994 22.5333 31.6688 21.5947 31.6688 20.368V15.264H32.7728V20.24C32.7728 21.1893 33.0074 21.9147 33.4768 22.416C33.9568 22.9173 34.6074 23.168 35.4288 23.168C36.2714 23.168 36.9434 22.9013 37.4448 22.368C37.9461 21.8347 38.1968 21.0507 38.1968 20.016V15.264H39.3168ZM44.8818 24.128C43.8791 24.128 43.0578 23.8987 42.4178 23.44C41.7884 22.9707 41.4364 22.336 41.3618 21.536H42.5138C42.5671 22.0267 42.7964 22.4267 43.2018 22.736C43.6178 23.0347 44.1724 23.184 44.8658 23.184C45.4738 23.184 45.9484 23.04 46.2898 22.752C46.6418 22.464 46.8178 22.1067 46.8178 21.68C46.8178 21.3813 46.7218 21.136 46.5298 20.944C46.3378 20.752 46.0924 20.6027 45.7938 20.496C45.5058 20.3787 45.1111 20.256 44.6098 20.128C43.9591 19.9573 43.4311 19.7867 43.0258 19.616C42.6204 19.4453 42.2738 19.1947 41.9858 18.864C41.7084 18.5227 41.5698 18.0693 41.5698 17.504C41.5698 17.0773 41.6978 16.6827 41.9538 16.32C42.2098 15.9573 42.5724 15.6693 43.0418 15.456C43.5111 15.2427 44.0444 15.136 44.6418 15.136C45.5804 15.136 46.3378 15.376 46.9138 15.856C47.4898 16.3253 47.7991 16.976 47.8418 17.808H46.7218C46.6898 17.296 46.4871 16.8853 46.1138 16.576C45.7511 16.256 45.2498 16.096 44.6098 16.096C44.0444 16.096 43.5858 16.2293 43.2338 16.496C42.8818 16.7627 42.7057 17.0933 42.7057 17.488C42.7057 17.8293 42.8071 18.112 43.0098 18.336C43.2231 18.5493 43.4844 18.72 43.7938 18.848C44.1031 18.9653 44.5191 19.0987 45.0418 19.248C45.6711 19.4187 46.1724 19.584 46.5458 19.744C46.9191 19.904 47.2391 20.1387 47.5058 20.448C47.7724 20.7573 47.9111 21.168 47.9218 21.68C47.9218 22.1493 47.7938 22.5707 47.5378 22.944C47.2818 23.3067 46.9244 23.5947 46.4658 23.808C46.0071 24.0213 45.4791 24.128 44.8818 24.128ZM50.59 13.616C50.366 13.616 50.174 13.536 50.014 13.376C49.854 13.216 49.774 13.0187 49.774 12.784C49.774 12.5493 49.854 12.3573 50.014 12.208C50.174 12.048 50.366 11.968 50.59 11.968C50.814 11.968 51.006 12.048 51.166 12.208C51.326 12.3573 51.406 12.5493 51.406 12.784C51.406 13.0187 51.326 13.216 51.166 13.376C51.006 13.536 50.814 13.616 50.59 13.616ZM51.15 15.264V24H50.03V15.264H51.15ZM53.1743 19.632C53.1743 18.7253 53.3556 17.936 53.7183 17.264C54.0809 16.5813 54.5823 16.0587 55.2223 15.696C55.8623 15.3227 56.5929 15.136 57.4143 15.136C58.4916 15.136 59.3769 15.4027 60.0703 15.936C60.7743 16.4693 61.2276 17.1947 61.4303 18.112H60.2303C60.0809 17.4827 59.7556 16.992 59.2543 16.64C58.7636 16.2773 58.1503 16.096 57.4143 16.096C56.8276 16.096 56.2996 16.2293 55.8303 16.496C55.3609 16.7627 54.9876 17.1627 54.7103 17.696C54.4436 18.2187 54.3103 18.864 54.3103 19.632C54.3103 20.4 54.4436 21.0507 54.7103 21.584C54.9876 22.1173 55.3609 22.5173 55.8303 22.784C56.2996 23.0507 56.8276 23.184 57.4143 23.184C58.1503 23.184 58.7636 23.008 59.2543 22.656C59.7556 22.2933 60.0809 21.792 60.2303 21.152H61.4303C61.2276 22.048 60.7743 22.768 60.0703 23.312C59.3663 23.856 58.4809 24.128 57.4143 24.128C56.5929 24.128 55.8623 23.9467 55.2223 23.584C54.5823 23.2107 54.0809 22.688 53.7183 22.016C53.3556 21.3333 53.1743 20.5387 53.1743 19.632Z" fill="#CFC9F0"/>
</svg>
