<svg width="80" height="36" viewBox="0 0 80 36" fill="none" xmlns="http://www.w3.org/2000/svg">
<path d="M0 18C0 10.5005 0 6.7508 1.90983 4.12215C2.52663 3.2732 3.2732 2.52663 4.12215 1.90983C6.7508 0 10.5005 0 18 0H62C69.4995 0 73.2492 0 75.8779 1.90983C76.7268 2.52663 77.4734 3.2732 78.0902 4.12215C80 6.7508 80 10.5005 80 18C80 25.4995 80 29.2492 78.0902 31.8779C77.4734 32.7268 76.7268 33.4734 75.8779 34.0902C73.2492 36 69.4995 36 62 36H18C10.5005 36 6.7508 36 4.12215 34.0902C3.2732 33.4734 2.52663 32.7268 1.90983 31.8779C0 29.2492 0 25.4995 0 18Z" fill="#1F1E25"/>
<path d="M22.76 21.344H17.672L16.696 24H15.512L19.592 12.96H20.856L24.92 24H23.736L22.76 21.344ZM22.424 20.416L20.216 14.368L18.008 20.416H22.424ZM30.8135 15.104C31.8588 15.104 32.7122 15.4293 33.3735 16.08C34.0348 16.72 34.3655 17.6533 34.3655 18.88V24H33.2615V19.008C33.2615 18.0587 33.0215 17.3333 32.5415 16.832C32.0722 16.3307 31.4268 16.08 30.6055 16.08C29.7628 16.08 29.0908 16.3467 28.5895 16.88C28.0882 17.4133 27.8375 18.1973 27.8375 19.232V24H26.7175V15.264H27.8375V16.752C28.1148 16.2187 28.5148 15.8133 29.0375 15.536C29.5602 15.248 30.1522 15.104 30.8135 15.104ZM37.4025 13.616C37.1785 13.616 36.9865 13.536 36.8265 13.376C36.6665 13.216 36.5865 13.0187 36.5865 12.784C36.5865 12.5493 36.6665 12.3573 36.8265 12.208C36.9865 12.048 37.1785 11.968 37.4025 11.968C37.6265 11.968 37.8185 12.048 37.9785 12.208C38.1385 12.3573 38.2185 12.5493 38.2185 12.784C38.2185 13.0187 38.1385 13.216 37.9785 13.376C37.8185 13.536 37.6265 13.616 37.4025 13.616ZM37.9625 15.264V24H36.8425V15.264H37.9625ZM50.8988 15.104C51.9228 15.104 52.7548 15.4293 53.3948 16.08C54.0454 16.72 54.3708 17.6533 54.3708 18.88V24H53.2668V19.008C53.2668 18.0587 53.0374 17.3333 52.5788 16.832C52.1201 16.3307 51.4961 16.08 50.7068 16.08C49.8854 16.08 49.2294 16.352 48.7388 16.896C48.2481 17.44 48.0028 18.2293 48.0028 19.264V24H46.8988V19.008C46.8988 18.0587 46.6694 17.3333 46.2108 16.832C45.7521 16.3307 45.1228 16.08 44.3228 16.08C43.5014 16.08 42.8454 16.352 42.3548 16.896C41.8641 17.44 41.6188 18.2293 41.6188 19.264V24H40.4988V15.264H41.6188V16.768C41.8961 16.224 42.2908 15.8133 42.8028 15.536C43.3148 15.248 43.8854 15.104 44.5148 15.104C45.2721 15.104 45.9334 15.2853 46.4988 15.648C47.0748 16.0107 47.4908 16.544 47.7468 17.248C47.9814 16.5547 48.3814 16.0267 48.9468 15.664C49.5228 15.2907 50.1734 15.104 50.8988 15.104ZM64.7621 19.184C64.7621 19.568 64.7515 19.8613 64.7301 20.064H57.4821C57.5141 20.7253 57.6741 21.2907 57.9621 21.76C58.2501 22.2293 58.6288 22.5867 59.0981 22.832C59.5675 23.0667 60.0795 23.184 60.6341 23.184C61.3595 23.184 61.9675 23.008 62.4581 22.656C62.9595 22.304 63.2901 21.8293 63.4501 21.232H64.6341C64.4208 22.0853 63.9621 22.784 63.2581 23.328C62.5648 23.8613 61.6901 24.128 60.6341 24.128C59.8128 24.128 59.0768 23.9467 58.4261 23.584C57.7755 23.2107 57.2635 22.688 56.8901 22.016C56.5275 21.3333 56.3461 20.5387 56.3461 19.632C56.3461 18.7253 56.5275 17.9307 56.8901 17.248C57.2528 16.5653 57.7595 16.0427 58.4101 15.68C59.0608 15.3173 59.8021 15.136 60.6341 15.136C61.4661 15.136 62.1915 15.3173 62.8101 15.68C63.4395 16.0427 63.9195 16.5333 64.2501 17.152C64.5915 17.76 64.7621 18.4373 64.7621 19.184ZM63.6261 19.152C63.6368 18.5013 63.5035 17.9467 63.2261 17.488C62.9595 17.0293 62.5915 16.6827 62.1221 16.448C61.6528 16.2133 61.1408 16.096 60.5861 16.096C59.7541 16.096 59.0448 16.3627 58.4581 16.896C57.8715 17.4293 57.5461 18.1813 57.4821 19.152H63.6261Z" fill="#CFC9F0"/>
</svg>
