<svg width="130" height="36" viewBox="0 0 130 36" fill="none" xmlns="http://www.w3.org/2000/svg">
<path d="M0 18C0 10.5005 0 6.7508 1.90983 4.12215C2.52663 3.2732 3.2732 2.52663 4.12215 1.90983C6.7508 0 10.5005 0 18 0H112C119.499 0 123.249 0 125.878 1.90983C126.727 2.52663 127.473 3.2732 128.09 4.12215C130 6.7508 130 10.5005 130 18C130 25.4995 130 29.2492 128.09 31.8779C127.473 32.7268 126.727 33.4734 125.878 34.0902C123.249 36 119.499 36 112 36H18C10.5005 36 6.7508 36 4.12215 34.0902C3.2732 33.4734 2.52663 32.7268 1.90983 31.8779C0 29.2492 0 25.4995 0 18Z" fill="#1F1E25"/>
<path d="M18.432 16.032C18.432 16.992 18.1173 17.7653 17.488 18.352C16.8587 18.9387 15.9147 19.232 14.656 19.232H12.4V24H11.28V12.816H14.656C15.904 12.816 16.8427 13.1093 17.472 13.696C18.112 14.2827 18.432 15.0613 18.432 16.032ZM14.656 18.272C16.4053 18.272 17.28 17.5253 17.28 16.032C17.28 15.2853 17.072 14.72 16.656 14.336C16.24 13.952 15.5733 13.76 14.656 13.76H12.4V18.272H14.656ZM21.4313 16.816C21.6766 16.272 22.0499 15.8507 22.5513 15.552C23.0633 15.2533 23.6873 15.104 24.4233 15.104V16.272H24.1193C23.3086 16.272 22.6579 16.4907 22.1673 16.928C21.6766 17.3653 21.4313 18.096 21.4313 19.12V24H20.3113V15.264H21.4313V16.816ZM29.9321 24.128C29.1108 24.128 28.3695 23.9467 27.7081 23.584C27.0575 23.2107 26.5401 22.688 26.1561 22.016C25.7828 21.3333 25.5961 20.5387 25.5961 19.632C25.5961 18.7253 25.7881 17.936 26.1721 17.264C26.5561 16.5813 27.0788 16.0587 27.7401 15.696C28.4015 15.3227 29.1428 15.136 29.9641 15.136C30.7855 15.136 31.5268 15.3227 32.1881 15.696C32.8601 16.0587 33.3828 16.5813 33.7561 17.264C34.1401 17.936 34.3321 18.7253 34.3321 19.632C34.3321 20.528 34.1401 21.3173 33.7561 22C33.3721 22.6827 32.8441 23.2107 32.1721 23.584C31.5001 23.9467 30.7535 24.128 29.9321 24.128ZM29.9321 23.152C30.5081 23.152 31.0415 23.024 31.5321 22.768C32.0228 22.5013 32.4175 22.1067 32.7161 21.584C33.0255 21.0507 33.1801 20.4 33.1801 19.632C33.1801 18.864 33.0308 18.2187 32.7321 17.696C32.4335 17.1627 32.0388 16.768 31.5481 16.512C31.0575 16.2453 30.5241 16.112 29.9481 16.112C29.3721 16.112 28.8388 16.2453 28.3481 16.512C27.8575 16.768 27.4628 17.1627 27.1641 17.696C26.8761 18.2187 26.7321 18.864 26.7321 19.632C26.7321 20.4 26.8761 21.0507 27.1641 21.584C27.4628 22.1067 27.8521 22.5013 28.3321 22.768C28.8228 23.024 29.3561 23.152 29.9321 23.152ZM40.0378 15.136C40.8591 15.136 41.5738 15.328 42.1818 15.712C42.7898 16.096 43.2271 16.5813 43.4938 17.168V15.264H44.6138V24.224C44.6138 25.024 44.4378 25.7333 44.0858 26.352C43.7444 26.9707 43.2644 27.4453 42.6458 27.776C42.0271 28.1173 41.3231 28.288 40.5338 28.288C39.4138 28.288 38.4804 28.0213 37.7338 27.488C36.9978 26.9547 36.5391 26.2293 36.3578 25.312H37.4618C37.6538 25.92 38.0164 26.4053 38.5498 26.768C39.0938 27.1307 39.7551 27.312 40.5338 27.312C41.0991 27.312 41.6058 27.1893 42.0538 26.944C42.5018 26.7093 42.8538 26.3573 43.1098 25.888C43.3658 25.4187 43.4938 24.864 43.4938 24.224V22.064C43.2164 22.6613 42.7738 23.1573 42.1658 23.552C41.5684 23.936 40.8591 24.128 40.0378 24.128C39.2378 24.128 38.5178 23.9413 37.8778 23.568C37.2484 23.1947 36.7524 22.6667 36.3898 21.984C36.0378 21.3013 35.8618 20.512 35.8618 19.616C35.8618 18.72 36.0378 17.936 36.3898 17.264C36.7524 16.5813 37.2484 16.0587 37.8778 15.696C38.5178 15.3227 39.2378 15.136 40.0378 15.136ZM43.4938 19.632C43.4938 18.928 43.3498 18.3093 43.0618 17.776C42.7738 17.2427 42.3791 16.832 41.8778 16.544C41.3871 16.256 40.8431 16.112 40.2458 16.112C39.6271 16.112 39.0724 16.2507 38.5818 16.528C38.0911 16.8053 37.7018 17.2107 37.4138 17.744C37.1364 18.2667 36.9978 18.8907 36.9978 19.616C36.9978 20.3307 37.1364 20.96 37.4138 21.504C37.7018 22.0373 38.0911 22.448 38.5818 22.736C39.0724 23.0133 39.6271 23.152 40.2458 23.152C40.8431 23.152 41.3871 23.008 41.8778 22.72C42.3791 22.432 42.7738 22.0213 43.0618 21.488C43.3498 20.9547 43.4938 20.336 43.4938 19.632ZM48.2906 16.816C48.536 16.272 48.9093 15.8507 49.4106 15.552C49.9226 15.2533 50.5466 15.104 51.2826 15.104V16.272H50.9786C50.168 16.272 49.5173 16.4907 49.0266 16.928C48.536 17.3653 48.2906 18.096 48.2906 19.12V24H47.1706V15.264H48.2906V16.816ZM52.4555 19.616C52.4555 18.72 52.6315 17.936 52.9835 17.264C53.3462 16.5813 53.8422 16.0587 54.4715 15.696C55.1115 15.3227 55.8315 15.136 56.6315 15.136C57.4635 15.136 58.1782 15.328 58.7755 15.712C59.3835 16.096 59.8208 16.5867 60.0875 17.184V15.264H61.2075V24H60.0875V22.064C59.8102 22.6613 59.3675 23.1573 58.7595 23.552C58.1622 23.936 57.4475 24.128 56.6155 24.128C55.8262 24.128 55.1115 23.9413 54.4715 23.568C53.8422 23.1947 53.3462 22.6667 52.9835 21.984C52.6315 21.3013 52.4555 20.512 52.4555 19.616ZM60.0875 19.632C60.0875 18.928 59.9435 18.3093 59.6555 17.776C59.3675 17.2427 58.9728 16.832 58.4715 16.544C57.9808 16.256 57.4368 16.112 56.8395 16.112C56.2208 16.112 55.6662 16.2507 55.1755 16.528C54.6848 16.8053 54.2955 17.2107 54.0075 17.744C53.7302 18.2667 53.5915 18.8907 53.5915 19.616C53.5915 20.3307 53.7302 20.96 54.0075 21.504C54.2955 22.0373 54.6848 22.448 55.1755 22.736C55.6662 23.0133 56.2208 23.152 56.8395 23.152C57.4368 23.152 57.9808 23.008 58.4715 22.72C58.9728 22.432 59.3675 22.0213 59.6555 21.488C59.9435 20.9547 60.0875 20.336 60.0875 19.632ZM74.1644 15.104C75.1884 15.104 76.0204 15.4293 76.6604 16.08C77.311 16.72 77.6364 17.6533 77.6364 18.88V24H76.5324V19.008C76.5324 18.0587 76.303 17.3333 75.8444 16.832C75.3857 16.3307 74.7617 16.08 73.9724 16.08C73.151 16.08 72.495 16.352 72.0044 16.896C71.5137 17.44 71.2684 18.2293 71.2684 19.264V24H70.1644V19.008C70.1644 18.0587 69.935 17.3333 69.4764 16.832C69.0177 16.3307 68.3884 16.08 67.5884 16.08C66.767 16.08 66.111 16.352 65.6204 16.896C65.1297 17.44 64.8844 18.2293 64.8844 19.264V24H63.7644V15.264H64.8844V16.768C65.1617 16.224 65.5564 15.8133 66.0684 15.536C66.5804 15.248 67.151 15.104 67.7804 15.104C68.5377 15.104 69.199 15.2853 69.7644 15.648C70.3404 16.0107 70.7564 16.544 71.0124 17.248C71.247 16.5547 71.647 16.0267 72.2124 15.664C72.7884 15.2907 73.439 15.104 74.1644 15.104ZM90.5238 15.104C91.5478 15.104 92.3798 15.4293 93.0198 16.08C93.6704 16.72 93.9958 17.6533 93.9958 18.88V24H92.8918V19.008C92.8918 18.0587 92.6624 17.3333 92.2038 16.832C91.7451 16.3307 91.1211 16.08 90.3318 16.08C89.5104 16.08 88.8544 16.352 88.3638 16.896C87.8731 17.44 87.6278 18.2293 87.6278 19.264V24H86.5238V19.008C86.5238 18.0587 86.2944 17.3333 85.8358 16.832C85.3771 16.3307 84.7478 16.08 83.9478 16.08C83.1264 16.08 82.4704 16.352 81.9798 16.896C81.4891 17.44 81.2438 18.2293 81.2438 19.264V24H80.1238V15.264H81.2438V16.768C81.5211 16.224 81.9158 15.8133 82.4278 15.536C82.9398 15.248 83.5104 15.104 84.1398 15.104C84.8971 15.104 85.5584 15.2853 86.1238 15.648C86.6998 16.0107 87.1158 16.544 87.3718 17.248C87.6064 16.5547 88.0064 16.0267 88.5718 15.664C89.1478 15.2907 89.7984 15.104 90.5238 15.104ZM97.0431 13.616C96.8191 13.616 96.6271 13.536 96.4671 13.376C96.3071 13.216 96.2271 13.0187 96.2271 12.784C96.2271 12.5493 96.3071 12.3573 96.4671 12.208C96.6271 12.048 96.8191 11.968 97.0431 11.968C97.2671 11.968 97.4591 12.048 97.6191 12.208C97.7791 12.3573 97.8591 12.5493 97.8591 12.784C97.8591 13.0187 97.7791 13.216 97.6191 13.376C97.4591 13.536 97.2671 13.616 97.0431 13.616ZM97.6031 15.264V24H96.4831V15.264H97.6031ZM104.235 15.104C105.281 15.104 106.134 15.4293 106.795 16.08C107.457 16.72 107.787 17.6533 107.787 18.88V24H106.683V19.008C106.683 18.0587 106.443 17.3333 105.963 16.832C105.494 16.3307 104.849 16.08 104.027 16.08C103.185 16.08 102.513 16.3467 102.011 16.88C101.51 17.4133 101.259 18.1973 101.259 19.232V24H100.139V15.264H101.259V16.752C101.537 16.2187 101.937 15.8133 102.459 15.536C102.982 15.248 103.574 15.104 104.235 15.104ZM113.928 15.136C114.75 15.136 115.464 15.328 116.072 15.712C116.68 16.096 117.118 16.5813 117.384 17.168V15.264H118.504V24.224C118.504 25.024 118.328 25.7333 117.976 26.352C117.635 26.9707 117.155 27.4453 116.536 27.776C115.918 28.1173 115.214 28.288 114.424 28.288C113.304 28.288 112.371 28.0213 111.624 27.488C110.888 26.9547 110.43 26.2293 110.248 25.312H111.352C111.544 25.92 111.907 26.4053 112.44 26.768C112.984 27.1307 113.646 27.312 114.424 27.312C114.99 27.312 115.496 27.1893 115.944 26.944C116.392 26.7093 116.744 26.3573 117 25.888C117.256 25.4187 117.384 24.864 117.384 24.224V22.064C117.107 22.6613 116.664 23.1573 116.056 23.552C115.459 23.936 114.75 24.128 113.928 24.128C113.128 24.128 112.408 23.9413 111.768 23.568C111.139 23.1947 110.643 22.6667 110.28 21.984C109.928 21.3013 109.752 20.512 109.752 19.616C109.752 18.72 109.928 17.936 110.28 17.264C110.643 16.5813 111.139 16.0587 111.768 15.696C112.408 15.3227 113.128 15.136 113.928 15.136ZM117.384 19.632C117.384 18.928 117.24 18.3093 116.952 17.776C116.664 17.2427 116.27 16.832 115.768 16.544C115.278 16.256 114.734 16.112 114.136 16.112C113.518 16.112 112.963 16.2507 112.472 16.528C111.982 16.8053 111.592 17.2107 111.304 17.744C111.027 18.2667 110.888 18.8907 110.888 19.616C110.888 20.3307 111.027 20.96 111.304 21.504C111.592 22.0373 111.982 22.448 112.472 22.736C112.963 23.0133 113.518 23.152 114.136 23.152C114.734 23.152 115.278 23.008 115.768 22.72C116.27 22.432 116.664 22.0213 116.952 21.488C117.24 20.9547 117.384 20.336 117.384 19.632Z" fill="#CFC9F0"/>
</svg>
