<svg width="130" height="36" viewBox="0 0 130 36" fill="none" xmlns="http://www.w3.org/2000/svg">
<path d="M0 18C0 10.5005 0 6.7508 1.90983 4.12215C2.52663 3.2732 3.2732 2.52663 4.12215 1.90983C6.7508 0 10.5005 0 18 0H112C119.499 0 123.249 0 125.878 1.90983C126.727 2.52663 127.473 3.2732 128.09 4.12215C130 6.7508 130 10.5005 130 18C130 25.4995 130 29.2492 128.09 31.8779C127.473 32.7268 126.727 33.4734 125.878 34.0902C123.249 36 119.499 36 112 36H18C10.5005 36 6.7508 36 4.12215 34.0902C3.2732 33.4734 2.52663 32.7268 1.90983 31.8779C0 29.2492 0 25.4995 0 18Z" fill="#1F1E25"/>
<path d="M21.144 12.816L16.904 24H15.624L11.384 12.816H12.6L16.264 22.784L19.96 12.816H21.144ZM23.3869 13.616C23.1629 13.616 22.9709 13.536 22.8109 13.376C22.6509 13.216 22.5709 13.0187 22.5709 12.784C22.5709 12.5493 22.6509 12.3573 22.8109 12.208C22.9709 12.048 23.1629 11.968 23.3869 11.968C23.6109 11.968 23.8029 12.048 23.9629 12.208C24.1229 12.3573 24.2029 12.5493 24.2029 12.784C24.2029 13.0187 24.1229 13.216 23.9629 13.376C23.8029 13.536 23.6109 13.616 23.3869 13.616ZM23.9469 15.264V24H22.8269V15.264H23.9469ZM25.9711 19.616C25.9711 18.72 26.1525 17.936 26.5151 17.264C26.8778 16.5813 27.3738 16.0587 28.0031 15.696C28.6431 15.3227 29.3631 15.136 30.1631 15.136C30.9311 15.136 31.6245 15.3227 32.2431 15.696C32.8618 16.0693 33.3151 16.5547 33.6031 17.152V12.16H34.7231V24H33.6031V22.048C33.3365 22.656 32.8991 23.1573 32.2911 23.552C31.6831 23.936 30.9685 24.128 30.1471 24.128C29.3471 24.128 28.6271 23.9413 27.9871 23.568C27.3578 23.1947 26.8618 22.6667 26.4991 21.984C26.1471 21.3013 25.9711 20.512 25.9711 19.616ZM33.6031 19.632C33.6031 18.928 33.4591 18.3093 33.1711 17.776C32.8831 17.2427 32.4885 16.832 31.9871 16.544C31.4965 16.256 30.9525 16.112 30.3551 16.112C29.7365 16.112 29.1818 16.2507 28.6911 16.528C28.2005 16.8053 27.8111 17.2107 27.5231 17.744C27.2458 18.2667 27.1071 18.8907 27.1071 19.616C27.1071 20.3307 27.2458 20.96 27.5231 21.504C27.8111 22.0373 28.2005 22.448 28.6911 22.736C29.1818 23.0133 29.7365 23.152 30.3551 23.152C30.9525 23.152 31.4965 23.008 31.9871 22.72C32.4885 22.432 32.8831 22.0213 33.1711 21.488C33.4591 20.9547 33.6031 20.336 33.6031 19.632ZM45.184 19.184C45.184 19.568 45.1733 19.8613 45.152 20.064H37.904C37.936 20.7253 38.096 21.2907 38.384 21.76C38.672 22.2293 39.0507 22.5867 39.52 22.832C39.9893 23.0667 40.5013 23.184 41.056 23.184C41.7813 23.184 42.3893 23.008 42.88 22.656C43.3813 22.304 43.712 21.8293 43.872 21.232H45.056C44.8427 22.0853 44.384 22.784 43.68 23.328C42.9867 23.8613 42.112 24.128 41.056 24.128C40.2347 24.128 39.4987 23.9467 38.848 23.584C38.1973 23.2107 37.6853 22.688 37.312 22.016C36.9493 21.3333 36.768 20.5387 36.768 19.632C36.768 18.7253 36.9493 17.9307 37.312 17.248C37.6747 16.5653 38.1813 16.0427 38.832 15.68C39.4827 15.3173 40.224 15.136 41.056 15.136C41.888 15.136 42.6133 15.3173 43.232 15.68C43.8613 16.0427 44.3413 16.5333 44.672 17.152C45.0133 17.76 45.184 18.4373 45.184 19.184ZM44.048 19.152C44.0587 18.5013 43.9253 17.9467 43.648 17.488C43.3813 17.0293 43.0133 16.6827 42.544 16.448C42.0747 16.2133 41.5627 16.096 41.008 16.096C40.176 16.096 39.4667 16.3627 38.88 16.896C38.2933 17.4293 37.968 18.1813 37.904 19.152H44.048ZM51.0571 24.128C50.2358 24.128 49.4945 23.9467 48.8331 23.584C48.1825 23.2107 47.6651 22.688 47.2811 22.016C46.9078 21.3333 46.7211 20.5387 46.7211 19.632C46.7211 18.7253 46.9131 17.936 47.2971 17.264C47.6811 16.5813 48.2038 16.0587 48.8651 15.696C49.5265 15.3227 50.2678 15.136 51.0891 15.136C51.9105 15.136 52.6518 15.3227 53.3131 15.696C53.9851 16.0587 54.5078 16.5813 54.8811 17.264C55.2651 17.936 55.4571 18.7253 55.4571 19.632C55.4571 20.528 55.2651 21.3173 54.8811 22C54.4971 22.6827 53.9691 23.2107 53.2971 23.584C52.6251 23.9467 51.8785 24.128 51.0571 24.128ZM51.0571 23.152C51.6331 23.152 52.1665 23.024 52.6571 22.768C53.1478 22.5013 53.5425 22.1067 53.8411 21.584C54.1505 21.0507 54.3051 20.4 54.3051 19.632C54.3051 18.864 54.1558 18.2187 53.8571 17.696C53.5585 17.1627 53.1638 16.768 52.6731 16.512C52.1825 16.2453 51.6491 16.112 51.0731 16.112C50.4971 16.112 49.9638 16.2453 49.4731 16.512C48.9825 16.768 48.5878 17.1627 48.2891 17.696C48.0011 18.2187 47.8571 18.864 47.8571 19.632C47.8571 20.4 48.0011 21.0507 48.2891 21.584C48.5878 22.1067 48.9771 22.5013 49.4571 22.768C49.9478 23.024 50.4811 23.152 51.0571 23.152ZM70.6894 16.08C70.3694 15.344 69.8787 14.768 69.2174 14.352C68.5667 13.9253 67.7987 13.712 66.9134 13.712C66.0814 13.712 65.3347 13.904 64.6734 14.288C64.012 14.672 63.4894 15.2213 63.1054 15.936C62.7214 16.64 62.5294 17.4613 62.5294 18.4C62.5294 19.3387 62.7214 20.1653 63.1054 20.88C63.4894 21.5947 64.012 22.144 64.6734 22.528C65.3347 22.912 66.0814 23.104 66.9134 23.104C67.692 23.104 68.3907 22.9387 69.0094 22.608C69.6387 22.2667 70.14 21.7867 70.5134 21.168C70.8974 20.5387 71.116 19.808 71.1694 18.976H66.4654V18.064H72.3534V18.88C72.3 19.8613 72.0334 20.752 71.5534 21.552C71.0734 22.3413 70.428 22.9653 69.6174 23.424C68.8174 23.8827 67.916 24.112 66.9134 24.112C65.8787 24.112 64.94 23.872 64.0974 23.392C63.2547 22.9013 62.588 22.224 62.0974 21.36C61.6174 20.4853 61.3774 19.4987 61.3774 18.4C61.3774 17.3013 61.6174 16.32 62.0974 15.456C62.588 14.5813 63.2547 13.904 64.0974 13.424C64.94 12.9333 65.8787 12.688 66.9134 12.688C68.108 12.688 69.1534 12.9867 70.0494 13.584C70.9454 14.1813 71.596 15.0133 72.0014 16.08H70.6894ZM73.893 19.616C73.893 18.72 74.069 17.936 74.421 17.264C74.7837 16.5813 75.2797 16.0587 75.909 15.696C76.549 15.3227 77.269 15.136 78.069 15.136C78.901 15.136 79.6157 15.328 80.213 15.712C80.821 16.096 81.2583 16.5867 81.525 17.184V15.264H82.645V24H81.525V22.064C81.2477 22.6613 80.805 23.1573 80.197 23.552C79.5997 23.936 78.885 24.128 78.053 24.128C77.2637 24.128 76.549 23.9413 75.909 23.568C75.2797 23.1947 74.7837 22.6667 74.421 21.984C74.069 21.3013 73.893 20.512 73.893 19.616ZM81.525 19.632C81.525 18.928 81.381 18.3093 81.093 17.776C80.805 17.2427 80.4103 16.832 79.909 16.544C79.4183 16.256 78.8743 16.112 78.277 16.112C77.6583 16.112 77.1037 16.2507 76.613 16.528C76.1223 16.8053 75.733 17.2107 75.445 17.744C75.1677 18.2667 75.029 18.8907 75.029 19.616C75.029 20.3307 75.1677 20.96 75.445 21.504C75.733 22.0373 76.1223 22.448 76.613 22.736C77.1037 23.0133 77.6583 23.152 78.277 23.152C78.8743 23.152 79.4183 23.008 79.909 22.72C80.4103 22.432 80.805 22.0213 81.093 21.488C81.381 20.9547 81.525 20.336 81.525 19.632ZM95.6019 15.104C96.6259 15.104 97.4579 15.4293 98.0979 16.08C98.7485 16.72 99.0739 17.6533 99.0739 18.88V24H97.9699V19.008C97.9699 18.0587 97.7405 17.3333 97.2819 16.832C96.8232 16.3307 96.1992 16.08 95.4099 16.08C94.5885 16.08 93.9325 16.352 93.4419 16.896C92.9512 17.44 92.7059 18.2293 92.7059 19.264V24H91.6019V19.008C91.6019 18.0587 91.3725 17.3333 90.9139 16.832C90.4552 16.3307 89.8259 16.08 89.0259 16.08C88.2045 16.08 87.5485 16.352 87.0579 16.896C86.5672 17.44 86.3219 18.2293 86.3219 19.264V24H85.2019V15.264H86.3219V16.768C86.5992 16.224 86.9939 15.8133 87.5059 15.536C88.0179 15.248 88.5885 15.104 89.2179 15.104C89.9752 15.104 90.6365 15.2853 91.2019 15.648C91.7779 16.0107 92.1939 16.544 92.4499 17.248C92.6845 16.5547 93.0845 16.0267 93.6499 15.664C94.2259 15.2907 94.8765 15.104 95.6019 15.104ZM109.465 19.184C109.465 19.568 109.455 19.8613 109.433 20.064H102.185C102.217 20.7253 102.377 21.2907 102.665 21.76C102.953 22.2293 103.332 22.5867 103.801 22.832C104.271 23.0667 104.783 23.184 105.337 23.184C106.063 23.184 106.671 23.008 107.161 22.656C107.663 22.304 107.993 21.8293 108.153 21.232H109.337C109.124 22.0853 108.665 22.784 107.961 23.328C107.268 23.8613 106.393 24.128 105.337 24.128C104.516 24.128 103.78 23.9467 103.129 23.584C102.479 23.2107 101.967 22.688 101.593 22.016C101.231 21.3333 101.049 20.5387 101.049 19.632C101.049 18.7253 101.231 17.9307 101.593 17.248C101.956 16.5653 102.463 16.0427 103.113 15.68C103.764 15.3173 104.505 15.136 105.337 15.136C106.169 15.136 106.895 15.3173 107.513 15.68C108.143 16.0427 108.623 16.5333 108.953 17.152C109.295 17.76 109.465 18.4373 109.465 19.184ZM108.329 19.152C108.34 18.5013 108.207 17.9467 107.929 17.488C107.663 17.0293 107.295 16.6827 106.825 16.448C106.356 16.2133 105.844 16.096 105.289 16.096C104.457 16.096 103.748 16.3627 103.161 16.896C102.575 17.4293 102.249 18.1813 102.185 19.152H108.329ZM114.522 24.128C113.52 24.128 112.698 23.8987 112.058 23.44C111.429 22.9707 111.077 22.336 111.002 21.536H112.154C112.208 22.0267 112.437 22.4267 112.842 22.736C113.258 23.0347 113.813 23.184 114.506 23.184C115.114 23.184 115.589 23.04 115.93 22.752C116.282 22.464 116.458 22.1067 116.458 21.68C116.458 21.3813 116.362 21.136 116.17 20.944C115.978 20.752 115.733 20.6027 115.434 20.496C115.146 20.3787 114.752 20.256 114.25 20.128C113.6 19.9573 113.072 19.7867 112.666 19.616C112.261 19.4453 111.914 19.1947 111.626 18.864C111.349 18.5227 111.21 18.0693 111.21 17.504C111.21 17.0773 111.338 16.6827 111.594 16.32C111.85 15.9573 112.213 15.6693 112.682 15.456C113.152 15.2427 113.685 15.136 114.282 15.136C115.221 15.136 115.978 15.376 116.554 15.856C117.13 16.3253 117.44 16.976 117.482 17.808H116.362C116.33 17.296 116.128 16.8853 115.754 16.576C115.392 16.256 114.89 16.096 114.25 16.096C113.685 16.096 113.226 16.2293 112.874 16.496C112.522 16.7627 112.346 17.0933 112.346 17.488C112.346 17.8293 112.448 18.112 112.65 18.336C112.864 18.5493 113.125 18.72 113.434 18.848C113.744 18.9653 114.16 19.0987 114.682 19.248C115.312 19.4187 115.813 19.584 116.186 19.744C116.56 19.904 116.88 20.1387 117.146 20.448C117.413 20.7573 117.552 21.168 117.562 21.68C117.562 22.1493 117.434 22.5707 117.178 22.944C116.922 23.3067 116.565 23.5947 116.106 23.808C115.648 24.0213 115.12 24.128 114.522 24.128Z" fill="#CFC9F0"/>
</svg>
