<svg width="80" height="36" viewBox="0 0 80 36" fill="none" xmlns="http://www.w3.org/2000/svg">
<path d="M0 18C0 10.5005 0 6.7508 1.90983 4.12215C2.52663 3.2732 3.2732 2.52663 4.12215 1.90983C6.7508 0 10.5005 0 18 0H62C69.4995 0 73.2492 0 75.8779 1.90983C76.7268 2.52663 77.4734 3.2732 78.0902 4.12215C80 6.7508 80 10.5005 80 18C80 25.4995 80 29.2492 78.0902 31.8779C77.4734 32.7268 76.7268 33.4734 75.8779 34.0902C73.2492 36 69.4995 36 62 36H18C10.5005 36 6.7508 36 4.12215 34.0902C3.2732 33.4734 2.52663 32.7268 1.90983 31.8779C0 29.2492 0 25.4995 0 18Z" fill="#1F1E25"/>
<path d="M21.328 12.816V13.744H16.4V17.92H20.56V18.848H16.4V24H15.28V12.816H21.328ZM22.6586 19.616C22.6586 18.72 22.8346 17.936 23.1866 17.264C23.5493 16.5813 24.0453 16.0587 24.6746 15.696C25.3146 15.3227 26.0346 15.136 26.8346 15.136C27.6666 15.136 28.3813 15.328 28.9786 15.712C29.5866 16.096 30.024 16.5867 30.2906 17.184V15.264H31.4106V24H30.2906V22.064C30.0133 22.6613 29.5706 23.1573 28.9626 23.552C28.3653 23.936 27.6506 24.128 26.8186 24.128C26.0293 24.128 25.3146 23.9413 24.6746 23.568C24.0453 23.1947 23.5493 22.6667 23.1866 21.984C22.8346 21.3013 22.6586 20.512 22.6586 19.616ZM30.2906 19.632C30.2906 18.928 30.1466 18.3093 29.8586 17.776C29.5706 17.2427 29.176 16.832 28.6746 16.544C28.184 16.256 27.64 16.112 27.0426 16.112C26.424 16.112 25.8693 16.2507 25.3786 16.528C24.888 16.8053 24.4986 17.2107 24.2106 17.744C23.9333 18.2667 23.7946 18.8907 23.7946 19.616C23.7946 20.3307 23.9333 20.96 24.2106 21.504C24.4986 22.0373 24.888 22.448 25.3786 22.736C25.8693 23.0133 26.424 23.152 27.0426 23.152C27.64 23.152 28.184 23.008 28.6746 22.72C29.176 22.432 29.5706 22.0213 29.8586 21.488C30.1466 20.9547 30.2906 20.336 30.2906 19.632ZM44.3675 15.104C45.3915 15.104 46.2235 15.4293 46.8635 16.08C47.5142 16.72 47.8395 17.6533 47.8395 18.88V24H46.7355V19.008C46.7355 18.0587 46.5062 17.3333 46.0475 16.832C45.5888 16.3307 44.9648 16.08 44.1755 16.08C43.3542 16.08 42.6982 16.352 42.2075 16.896C41.7168 17.44 41.4715 18.2293 41.4715 19.264V24H40.3675V19.008C40.3675 18.0587 40.1382 17.3333 39.6795 16.832C39.2208 16.3307 38.5915 16.08 37.7915 16.08C36.9702 16.08 36.3142 16.352 35.8235 16.896C35.3328 17.44 35.0875 18.2293 35.0875 19.264V24H33.9675V15.264H35.0875V16.768C35.3648 16.224 35.7595 15.8133 36.2715 15.536C36.7835 15.248 37.3542 15.104 37.9835 15.104C38.7408 15.104 39.4022 15.2853 39.9675 15.648C40.5435 16.0107 40.9595 16.544 41.2155 17.248C41.4502 16.5547 41.8502 16.0267 42.4155 15.664C42.9915 15.2907 43.6422 15.104 44.3675 15.104ZM50.8869 13.616C50.6629 13.616 50.4709 13.536 50.3109 13.376C50.1509 13.216 50.0709 13.0187 50.0709 12.784C50.0709 12.5493 50.1509 12.3573 50.3109 12.208C50.4709 12.048 50.6629 11.968 50.8869 11.968C51.1109 11.968 51.3029 12.048 51.4629 12.208C51.6229 12.3573 51.7029 12.5493 51.7029 12.784C51.7029 13.0187 51.6229 13.216 51.4629 13.376C51.3029 13.536 51.1109 13.616 50.8869 13.616ZM51.4469 15.264V24H50.3269V15.264H51.4469ZM55.1031 12.16V24H53.9831V12.16H55.1031ZM64.8394 15.264L59.6554 28.112H58.4874L60.1834 23.952L56.5994 15.264H57.8314L60.8074 22.72L63.6874 15.264H64.8394Z" fill="#CFC9F0"/>
</svg>
